<svg xmlns="http://www.w3.org/2000/svg" viewBox="0 0 495 495"><path fill="#ff5023" d="M247.5 115.486l51.715 51.717h56.569L247.5 58.918 139.215 167.203h56.569z"/><path d="M0 167.203v268.879h247.5V167.203H0zm182.836 146.679c-1.591 3.901-3.796 7.335-6.614 10.305-2.822 2.97-6.182 5.355-10.08 7.155-3.901 1.8-8.161 2.7-12.781 2.7-4.74 0-9.061-.93-12.959-2.79-3.901-1.859-7.231-4.305-9.99-7.335-2.761-3.029-4.905-6.494-6.436-10.395a32.761 32.761 0 01-2.295-12.06c0-4.199.795-8.249 2.385-12.15 1.59-3.899 3.811-7.335 6.66-10.305 2.85-2.97 6.225-5.339 10.125-7.11 3.9-1.769 8.16-2.655 12.78-2.655 4.739 0 9.06.931 12.96 2.79 3.9 1.861 7.229 4.32 9.99 7.38a33.339 33.339 0 016.391 10.44c1.498 3.901 2.25 7.861 2.25 11.88a31.9 31.9 0 01-2.386 12.15zm62.1-14.58a23.12 23.12 0 01-4.14 6.93c-1.771 2.041-3.916 3.661-6.436 4.86-2.52 1.201-5.311 1.8-8.37 1.8h-12.96v20.61h-14.76v-63.9h27.27c3.061 0 5.864.63 8.416 1.89 2.549 1.26 4.738 2.911 6.569 4.95a23.66 23.66 0 014.319 6.93c1.05 2.581 1.576 5.19 1.576 7.83a22.408 22.408 0 01-1.484 8.1z" fill="#ff9478"/><path d="M165.871 288.187a16.098 16.098 0 00-5.265-4.23c-2.07-1.049-4.455-1.575-7.155-1.575-2.821 0-5.265.556-7.335 1.665-2.07 1.111-3.811 2.565-5.221 4.365-1.41 1.8-2.461 3.856-3.149 6.165a24.562 24.562 0 00-1.035 7.065c0 2.461.36 4.846 1.08 7.155.72 2.311 1.784 4.365 3.194 6.165s3.164 3.24 5.266 4.32c2.1 1.08 4.5 1.62 7.2 1.62 2.819 0 5.278-.569 7.38-1.71 2.1-1.139 3.839-2.624 5.22-4.455 1.38-1.83 2.415-3.899 3.104-6.21a24.587 24.587 0 001.035-7.065c0-2.459-.359-4.845-1.08-7.155-.718-2.309-1.798-4.349-3.239-6.12zm63.449-3.555c-.661-.72-1.41-1.245-2.25-1.575a6.877 6.877 0 00-2.521-.495h-11.52v17.46h12.061c1.739 0 3.24-.75 4.5-2.25 1.26-1.499 1.89-3.69 1.89-6.57 0-1.499-.195-2.79-.585-3.87-.39-1.08-.916-1.98-1.575-2.7z" fill="#ff9478"/><path d="M247.5 167.203v268.879H495V167.203H247.5zm56.25 166.299h-44.91v-63.9h44.1v12.96H273.6v12.42h25.2v11.97h-25.2v13.59h30.15v12.96zm69.569 0h-11.881l-29.43-36.54v36.54h-14.76v-63.9h11.52l29.79 37.53v-37.53h14.761v63.9z" fill="#ff7956"/><path d="M176.581 279.412c-2.761-3.06-6.09-5.52-9.99-7.38-3.9-1.859-8.221-2.79-12.96-2.79-4.62 0-8.88.886-12.78 2.655-3.9 1.771-7.275 4.14-10.125 7.11-2.85 2.97-5.07 6.406-6.66 10.305a31.895 31.895 0 00-2.385 12.15c0 4.14.766 8.161 2.295 12.06 1.53 3.901 3.675 7.366 6.436 10.395 2.759 3.03 6.089 5.476 9.99 7.335 3.898 1.86 8.219 2.79 12.959 2.79 4.62 0 8.88-.9 12.781-2.7 3.898-1.8 7.258-4.185 10.08-7.155 2.818-2.97 5.023-6.404 6.614-10.305a31.9 31.9 0 002.386-12.15c0-4.019-.752-7.979-2.25-11.88a33.339 33.339 0 00-6.391-10.44zm-7.426 29.115c-.689 2.311-1.725 4.38-3.104 6.21-1.381 1.831-3.12 3.316-5.22 4.455-2.102 1.141-4.561 1.71-7.38 1.71-2.7 0-5.101-.54-7.2-1.62-2.102-1.08-3.855-2.52-5.266-4.32s-2.475-3.854-3.194-6.165a23.896 23.896 0 01-1.08-7.155c0-2.399.345-4.755 1.035-7.065.688-2.309 1.739-4.365 3.149-6.165 1.41-1.8 3.15-3.254 5.221-4.365 2.07-1.109 4.514-1.665 7.335-1.665 2.7 0 5.085.526 7.155 1.575a16.119 16.119 0 015.265 4.23c1.44 1.771 2.521 3.811 3.239 6.12a23.874 23.874 0 011.08 7.155c0 2.401-.345 4.756-1.035 7.065zm71.37-32.085c-1.831-2.039-4.021-3.69-6.569-4.95-2.552-1.26-5.355-1.89-8.416-1.89h-27.27v63.9h14.76v-20.61h12.96c3.06 0 5.851-.599 8.37-1.8 2.52-1.199 4.664-2.819 6.436-4.86a23.154 23.154 0 004.14-6.93 22.43 22.43 0 001.485-8.1c0-2.64-.526-5.25-1.576-7.83a23.683 23.683 0 00-4.32-6.93zm-10.934 21.33c-1.26 1.5-2.761 2.25-4.5 2.25H213.03v-17.46h11.52c.84 0 1.68.166 2.521.495.84.33 1.589.855 2.25 1.575.659.72 1.185 1.62 1.575 2.7.39 1.08.585 2.371.585 3.87-.001 2.88-.63 5.071-1.89 6.57zm44.009 9.18h25.2v-11.97h-25.2v-12.42h29.339v-12.96H258.84v63.9h44.91v-12.96H273.6zm84.959.18l-29.79-37.53h-11.52v63.9h14.76v-36.54l29.429 36.54h11.881v-63.9h-14.76z" fill="#cd2a00"/></svg>