<svg xmlns="http://www.w3.org/2000/svg" viewBox="0 0 512 512"><path d="M488 20H24C10.766 20 0 30.766 0 44v424c0 13.234 10.766 24 24 24h464c13.234 0 24-10.766 24-24V44c0-13.234-10.766-24-24-24z" fill="#8a8895"/><path d="M488 20H24C10.766 20 0 30.766 0 44v424c0 13.234 10.766 24 24 24h464c13.234 0 24-10.766 24-24V44c0-13.234-10.766-24-24-24zm8 448a8 8 0 01-8 8H24a8 8 0 01-8-8V92a8 8 0 018-8h464a8 8 0 018 8v376z" fill="#b8bac0"/><path d="M32 60c-2.164 0-4.164-.883-5.68-2.32C24.875 56.156 24 54.078 24 52s.875-4.164 2.32-5.68c2.961-2.961 8.398-2.961 11.359 0C39.117 47.836 40 49.922 40 52s-.883 4.156-2.32 5.68C36.156 59.117 34.078 60 32 60z" fill="#ff4f19"/><path d="M56 60c-2.078 0-4.164-.883-5.68-2.32C48.875 56.156 48 54.156 48 52c0-2.078.875-4.164 2.32-5.68 2.961-2.961 8.398-2.961 11.359 0C63.117 47.836 64 49.922 64 52s-.883 4.156-2.32 5.68C60.156 59.117 58.078 60 56 60z" fill="#ffd100"/><path d="M80 60c-2.078 0-4.164-.883-5.68-2.32C72.875 56.156 72 54.078 72 52c0-2.164.875-4.242 2.32-5.68 3.039-2.961 8.32-2.961 11.359 0C87.117 47.758 88 49.836 88 52c0 2.078-.883 4.156-2.32 5.68C84.156 59.117 82.078 60 80 60z" fill="#00e58b"/><path d="M400 132H112c-13.234 0-24 10.766-24 24v256c0 13.234 10.766 24 24 24h288c13.234 0 24-10.766 24-24V156c0-13.234-10.766-24-24-24zM64 316a7.97 7.97 0 01-5.656-2.344l-24-24a7.998 7.998 0 010-11.313l24-24c3.125-3.125 8.188-3.125 11.313 0s3.125 8.188 0 11.313L51.313 284l18.344 18.344a7.998 7.998 0 010 11.313A7.978 7.978 0 0164 316zm384 0a7.97 7.97 0 01-5.656-2.344 7.998 7.998 0 010-11.313L460.688 284l-18.344-18.344c-3.125-3.125-3.125-8.188 0-11.313s8.188-3.125 11.313 0l24 24a7.998 7.998 0 010 11.313l-24 24A7.975 7.975 0 01448 316z" fill="#fff"/><path d="M376 188h-48c-4.422 0-8-3.578-8-8s3.578-8 8-8h48c4.422 0 8 3.578 8 8s-3.578 8-8 8z" fill="#5c546a"/><path d="M344 268h-16c-4.422 0-8-3.578-8-8s3.578-8 8-8h16c4.422 0 8 3.578 8 8s-3.578 8-8 8zm0 32h-16c-4.422 0-8-3.578-8-8s3.578-8 8-8h16c4.422 0 8 3.578 8 8s-3.578 8-8 8z" fill="#b8bac0"/><path d="M344 332h-16c-4.422 0-8-3.578-8-8s3.578-8 8-8h16c4.422 0 8 3.578 8 8s-3.578 8-8 8z" fill="#ff4f19"/><path d="M360 220h-32c-4.422 0-8-3.578-8-8s3.578-8 8-8h32c4.422 0 8 3.578 8 8s-3.578 8-8 8z" fill="#5c546a"/><path d="M240 364h-96c-4.422 0-8-3.578-8-8s3.578-8 8-8h96c4.422 0 8 3.578 8 8s-3.578 8-8 8zm80 32H144c-4.422 0-8-3.578-8-8s3.578-8 8-8h176c4.422 0 8 3.578 8 8s-3.578 8-8 8z" fill="#8a8895"/><path d="M254.316 180h-11.155c-3.393 0-6.317 2.18-7.501 5.359C231.621 196.211 220.81 204 208 204s-23.621-7.789-27.66-18.641c-1.184-3.18-4.108-5.359-7.501-5.359h-11.155C143.081 180 128 194.327 128 212v16a8 8 0 008 8h24v80a8 8 0 008 8h80a8 8 0 008-8v-80h24a8 8 0 008-8v-16c0-17.673-15.081-32-33.684-32z" fill="#ff4f19"/><path d="M208 324V204c-12.81 0-23.621-7.789-27.66-18.641-1.184-3.18-4.108-5.359-7.501-5.359h-11.155C143.081 180 128 194.327 128 212v16a8 8 0 008 8h24v80a8 8 0 008 8h40z" fill="#e7001e"/></svg>