<svg xmlns="http://www.w3.org/2000/svg" viewBox="0 0 486.944 486.944"><path d="M2.962 60l29.685 181.689c4.43 27.021 29.348 48.187 56.729 48.187H213.33V60H2.962z" fill="#ff9478"/><path d="M349.553 151.016c14.14 0 27.774 2.201 40.586 6.267L406.085 60H213.329v229.875h1.875a135.74 135.74 0 01-.081-4.43c0-74.124 60.305-134.429 134.43-134.429z" fill="#ff7956"/><path d="M37.488 433.41c0 29.519 24.016 53.534 53.535 53.534V379.875c-29.52 0-53.535 24.016-53.535 53.535zm263.55-22.597a53.2 53.2 0 00-5.019 22.597c0 29.519 24.015 53.534 53.534 53.534v-67.069c-17.098 0-33.458-3.215-48.515-9.062z" fill="#2488ff"/><path d="M91.022 379.875v107.069c29.519 0 53.534-24.015 53.534-53.534s-24.015-53.535-53.534-53.535zm258.531 107.069c29.519 0 53.535-24.015 53.535-53.534a53.202 53.202 0 00-5.019-22.597c-15.057 5.847-31.417 9.062-48.516 9.062v67.069z" fill="#005ece"/><path d="M449.898 40h31.894V0H415.92l-25.781 157.283a134.062 134.062 0 0137.458 18.769L449.898 40zM57.488 319.875v40h180.178a133.834 133.834 0 01-18.066-40H57.488z" fill="#2488ff"/><path d="M349.553 379.875V345.23l-69.142-69.142 28.284-28.284 40.858 40.858V151.016c-74.125 0-134.43 60.305-134.43 134.43 0 1.483.033 2.958.081 4.43a133.962 133.962 0 004.395 30 133.834 133.834 0 0018.066 40c15.275 22.887 37.376 40.843 63.372 50.938 15.057 5.847 31.417 9.062 48.515 9.062v-40.001z" fill="#ffda44"/><path d="M483.983 285.446c0-45.048-22.275-84.988-56.386-109.394a134.09 134.09 0 00-37.458-18.769 133.953 133.953 0 00-40.586-6.267v137.646l40.858-40.858 28.284 28.284-69.142 69.142v74.645c17.099 0 33.458-3.215 48.516-9.062 50.218-19.501 85.914-68.341 85.914-125.367z" fill="#ffcd00"/><path fill="#2488ff" d="M280.411 276.088l69.142 69.142 69.142-69.142-28.284-28.284-40.858 40.858-40.858-40.858z"/></svg>