<svg xmlns="http://www.w3.org/2000/svg" viewBox="0 0 486.944 486.944"><path d="M90.47 289.875h123.954V60H4.057l29.685 181.689c4.43 27.02 29.348 48.186 56.728 48.186z" fill="#ff9478"/><path fill="#ff7956" d="M369.501 289.875L407.181 60H214.425v229.875z"/><path d="M38.583 433.41c0 29.519 24.016 53.534 53.535 53.534V379.875c-29.519 0-53.535 24.016-53.535 53.535zm258.532 0c0 29.519 24.015 53.534 53.534 53.534V379.875c-29.519 0-53.534 24.016-53.534 53.535z" fill="#2488ff"/><path d="M92.118 379.875v107.069c29.519 0 53.534-24.015 53.534-53.534s-24.015-53.535-53.534-53.535zm258.531 0v107.069c29.519 0 53.535-24.015 53.535-53.534s-24.016-53.535-53.535-53.535z" fill="#005ece"/><path fill="#2488ff" d="M417.016 0l-52.433 319.875h-306v40h339.978L450.993 40h31.894V0z"/></svg>