<svg xmlns="http://www.w3.org/2000/svg" viewBox="0 0 495 495"><path d="M47.502 199.998v57.183c0-33.017 16.472-62.256 41.626-79.941C100.211 99.758 167.003 40 247.5 40V0C137.221 0 47.502 89.719 47.502 199.998z" fill="#ff3501"/><path d="M447.498 199.998C447.498 89.719 357.779 0 247.5 0v40c80.497 0 147.289 59.758 158.372 137.239 23.311 16.39 39.163 42.702 41.36 72.749h.266v-49.99z" fill="#cd2a00"/><path d="M47.502 257.181h117.665v-97.665h-20c-20.836 0-40.165 6.563-56.039 17.723-25.154 17.686-41.626 46.925-41.626 79.942z" fill="#ff5023"/><path d="M47.502 257.181V415c0 44.112 35.888 80 80 80h173.946v-40H127.502c-22.056 0-40-17.944-40-40v-79.048c16.171 11.87 36.112 18.893 57.665 18.893h20V257.18H47.502z" fill="#ff3501"/><path d="M405.872 177.239c-15.874-11.161-35.203-17.723-56.039-17.723h-20v97.665h117.665c0-2.419-.092-4.817-.266-7.192-2.197-30.048-18.049-56.36-41.36-72.75z" fill="#ff5023"/><path d="M329.833 354.845h20c53.853 0 97.665-43.812 97.665-97.665H329.833v97.665z" fill="#ff3501"/><path fill="#cd2a00" d="M193.552 387.972h107.896v40H193.552z"/></svg>