<svg xmlns="http://www.w3.org/2000/svg" viewBox="0 0 497.415 497.415"><path d="M159.897 299.571v197.844l92.581-46.464 92.581 46.464V294.343c-27.008 19.863-60.33 31.617-96.351 31.617-32.737 0-63.245-9.71-88.811-26.389z" fill="#ff5023"/><path d="M248.708 0C158.84 0 85.727 73.112 85.727 162.98c0 57.131 29.554 107.482 74.17 136.591 25.566 16.679 56.073 26.39 88.81 26.39V0z" fill="#ffda44"/><path d="M411.688 162.98C411.688 73.112 338.575 0 248.708 0v325.96c36.021 0 69.343-11.754 96.351-31.617 40.374-29.693 66.629-77.516 66.629-131.363z" fill="#ffcd00"/></svg>