<svg xmlns="http://www.w3.org/2000/svg" viewBox="0 0 495 495"><path d="M277.5 413.523v-69.597c-34.512 0-62.5-27.988-62.5-62.5s27.988-62.5 62.5-62.5v-69.597H156c0 53.014-42.987 96-96 96v72.194c53.013 0 96 42.987 96 96h243-121.5z" fill="#00eed1"/><path d="M399 149.329h6.379H277.5v69.597c34.512 0 62.5 27.988 62.5 62.5s-27.988 62.5-62.5 62.5v69.597H399c0-53.013 42.987-96 96-96v-72.194c-53.013 0-96-42.986-96-96z" fill="#00ddc2"/><path d="M215 281.426c0 34.512 27.988 62.5 62.5 62.5v-125c-34.512 0-62.5 27.988-62.5 62.5z" fill="#00ccb3"/><path d="M277.5 343.926c34.512 0 62.5-27.988 62.5-62.5s-27.988-62.5-62.5-62.5v125z" fill="#00aa95"/><path d="M60 317.523v96h96c0-53.014-42.987-96-96-96zm96-168.194H60v96c53.013 0 96-42.986 96-96z" fill="#00ccb3"/><path d="M435 149.329V81.477H0v264.194h60V149.329h345.379H399c0 53.014 42.987 96 96 96v-96h-60zm-36 264.194h96v-96c-53.013 0-96 42.986-96 96z" fill="#00aa95"/></svg>