<svg xmlns="http://www.w3.org/2000/svg" viewBox="0 0 499.521 499.521"><path d="M455.467 25.721l-182.4-10.4c-8.8-.8-16.8 2.4-23.2 8.8l-231.2 216.8c-12 12-18.4 38.4-7.2 50.4l199.2 199.2c12 12 30.4 12 42.4 0l231.2-231.2c6.4-6.4 8.8-14.4 8.8-23.2l-9.6-186.4c-.8-15.2-12.8-23.2-28-24z" fill="#025dc9"/><path d="M455.467 10.521l-182.4-10.4c-8.8-.8-16.8 2.4-23.2 8.8l-231.2 232c-12 12-12 30.4 0 42.4l192.8 192.8c12 12 30.4 12 42.4 0l231.2-231.2c6.4-6.4 8.8-14.4 8.8-23.2l-10.4-183.2c-.8-15.2-12.8-27.2-28-28z" fill="#0093f7"/><path d="M211.467 475.321c12 12 30.4 12 42.4 0l231.2-231.2c6.4-6.4 8.8-14.4 8.8-23.2l-10.4-182.4c-.8-15.2-12.8-27.2-28-28l-182.4-10.4c-8.8-.8-16.8 2.4-23.2 8.8" fill="#0078db"/><path d="M445.067 98.521c0 27.2-22.4 64-48.8 64-27.2 0-48.8-36.8-48.8-64s22.4-48.8 48.8-48.8 48.8 21.6 48.8 48.8z" fill="#025dc9"/><circle cx="395.467" cy="98.521" r="48.8" fill="#ff5b00"/><path d="M361.067 64.121c19.2-19.2 50.4-19.2 69.6 0s19.2 50.4 0 69.6" fill="#d40"/><circle cx="395.467" cy="98.521" r="28.8" fill="#ebf0f2"/><path d="M416.267 77.721c11.2 11.2 11.2 29.6 0 41.6-11.2 11.2-29.6 11.2-41.6 0" fill="#cadfe5"/><path d="M113.867 235.321c-20.8 20.8-20.8 55.2 0 76s55.2 20.8 76 0 20.8-55.2 0-76c-21.6-20.8-55.2-20.8-76 0zm56 56c-9.6 9.6-25.6 9.6-36 0-9.6-9.6-9.6-25.6 0-36 9.6-9.6 25.6-9.6 36 0 9.6 9.6 9.6 25.6 0 36zm205.6-56c-20.8-20.8-55.2-20.8-76 0s-20.8 55.2 0 76 55.2 20.8 76 0c20.8-21.6 20.8-55.2 0-76zm-20 56c-9.6 9.6-25.6 9.6-36 0-9.6-9.6-9.6-25.6 0-36 9.6-9.6 25.6-9.6 36 0 9.6 9.6 9.6 25.6 0 36zm-95.2-164c0-.8 0-.8 0 0-.8-1.6-.8-2.4-.8-3.2v-.8c-.8-.8-1.6-1.6-2.4-1.6-2.4-3.2-5.6-4.8-9.6-4.8-8 0-13.6 6.4-13.6 14.4v289.6c0 8 5.6 14.4 13.6 14.4 4 0 7.2-1.6 9.6-4s4-6.4 4-9.6v-289.6c0-3.2-.8-4-.8-4.8z" fill="#025dc9"/><path d="M177.067 298.521c-20.8 20.8-55.2 20.8-76 0s-20.8-55.2 0-76 55.2-20.8 76 0 20.8 54.4 0 76zm-56-56c-9.6 9.6-9.6 25.6 0 36 9.6 9.6 25.6 9.6 36 0 9.6-9.6 9.6-25.6 0-36-10.4-10.4-26.4-10.4-36 0z" fill="#ebf0f2"/><path d="M362.667 298.521c-20.8 20.8-55.2 20.8-76 0s-20.8-55.2 0-76 55.2-20.8 76 0c20.8 20.8 20.8 54.4 0 76zm-56-56c-9.6 9.6-9.6 25.6 0 36 9.6 9.6 25.6 9.6 36 0 9.6-9.6 9.6-25.6 0-36-9.6-9.6-25.6-9.6-36 0z" fill="#cadfe5"/><path d="M245.067 416.921c-2.4 2.4-7.2 4-11.2 4-8 0-15.2-6.4-15.2-14.4v-288.8c0-8 8-14.4 16-14.4s16 6.4 16 14.4v289.6c-.8 4-3.2 7.2-5.6 9.6z" fill="#ebf0f2"/><path d="M245.067 416.921c2.4-2.4 4.8-6.4 4.8-9.6v-289.6c0-4.8-4-8.8-8-11.2l-24 268v32.8c0 8 8 14.4 15.2 14.4 4-.8 8.8-2.4 12-4.8z" fill="#cadfe5"/></svg>