<svg xmlns="http://www.w3.org/2000/svg" viewBox="0 0 492.8 492.8"><path fill="#34b515" d="M310 328.8l-64 12.8-64-12.8v164l64-63.2 64 63.2z"/><path fill="#329908" d="M246 429.6l64 63.2v-164l-64 12.8-63.2-12.8"/><path d="M400.4 215.2l30.4-30.4-31.2-31.2 15.2-40-40.8-16V54.4h-40.8l-16.8-40-40 16.8L246 0l-31.2 31.2-40-16.8-16 40H118v43.2l-41.6 16.8 16 40L62 184.8 92.4 216l-15.2 40 40.8 16v46.4h40.8l16.8 38.4 40-17.6 30.4 29.6 31.2-31.2 40 18.4 16-38.4H374v-47.2l41.6-16.8-15.2-38.4zM262 212l-7.2-3.2-3.2 8.8-5.6-6.4-6.4 6.4-2.4-8-7.2 3.2v-6.4h-11.2L222 196l-8.8-4 6.4-7.2-6.4-6.4 8-3.2-3.2-8.8h12v-9.6l7.2 3.2 3.2-8.8 5.6 7.2 6.4-6.4 2.4 8 7.2-3.2v9.6h11.2l-3.2 8 8.8 3.2-6.4 6.4 6.4 6.4-8 4.8 3.2 10.4h-12v6.4z" fill="#e57c0a"/><path d="M118 270.4v48h40.8l16.8 38.4 40-17.6 30.4 29.6 31.2-31.2 40 18.4 16-38.4H374v-47.2l41.6-16.8-16-40 30.4-30.4-30.4-31.2 15.2-40L374 96V54.4h-40M262 212l-7.2-3.2-3.2 8.8-5.6-6.4-6.4 6.4-2.4-8-7.2 3.2v-6.4h-11.2L222 196l-8.8-4 6.4-7.2-6.4-6.4 8-3.2-3.2-8.8h12v-9.6l7.2 3.2 3.2-8.8 5.6 7.2 6.4-6.4 2.4 8 7.2-3.2v9.6h11.2l-3.2 8 8.8 3.2-6.4 6.4 6.4 6.4-8 4.8 3.2 10.4h-12v6.4z" fill="#d16800"/><circle cx="246" cy="184.8" r="113.6" fill="#ffc41d"/><path d="M326.8 104c44.8 44.8 44.8 116.8 0 161.6s-116.8 44.8-161.6 0" fill="#f4a211"/><path d="M230 142.4h-.8l-29.6 12.8-5.6-26.4 40.8-18.4H262v152h-32v-120z" fill="#353a3a"/><path d="M262 110.4v152h-32v-60.8" fill="#1a1e1e"/></svg>