<svg xmlns="http://www.w3.org/2000/svg" viewBox="0 0 512 512"><path fill="#e54728" d="M387.016 279.883V12.39H124.982v267.493H37.794L256 499.61l218.204-219.727z"/><path fill="#f95428" d="M103.278 307.141h48.962V39.648h207.518v267.493h48.963L256 460.926z"/><path d="M334.679 204.295c-6.842 0-12.39-5.547-12.39-12.39v-123.9c0-6.843 5.548-12.39 12.39-12.39s12.39 5.547 12.39 12.39v123.9c0 6.843-5.548 12.39-12.39 12.39z" fill="#f9a493"/><g fill="#333"><path d="M208.159 218.817c-26.524 0-48.104-21.58-48.104-48.104s21.58-48.103 48.104-48.103 48.104 21.58 48.104 48.103-21.579 48.104-48.104 48.104zm0-71.427c-12.861 0-23.324 10.463-23.324 23.323 0 12.86 10.463 23.324 23.324 23.324 12.861 0 23.324-10.463 23.324-23.324.001-12.861-10.463-23.323-23.324-23.323zm95.681 167.108c-26.524 0-48.104-21.58-48.104-48.104s21.58-48.103 48.104-48.103 48.103 21.58 48.103 48.103-21.578 48.104-48.103 48.104zm0-71.427c-12.861 0-23.324 10.463-23.324 23.323 0 12.86 10.463 23.324 23.324 23.324s23.323-10.463 23.323-23.324c-.001-12.861-10.463-23.323-23.323-23.323zm-93.294 33.327a12.348 12.348 0 01-8.761-3.629c-4.838-4.838-4.838-12.684 0-17.522l90.908-90.908c4.84-4.838 12.682-4.838 17.523 0 4.838 4.838 4.838 12.684 0 17.522l-90.908 90.908a12.362 12.362 0 01-8.762 3.629z"/><path d="M256 512a12.39 12.39 0 01-8.792-3.66L29.003 288.614a12.389 12.389 0 018.792-21.119h74.798V12.39c0-6.843 5.547-12.39 12.39-12.39h262.034c6.842 0 12.39 5.547 12.39 12.39v255.103h74.798a12.388 12.388 0 018.79 21.12L264.79 508.34A12.384 12.384 0 01256 512zM67.559 292.273l188.439 189.753 188.439-189.753h-57.423c-6.842 0-12.39-5.547-12.39-12.39V24.78H137.372v255.103c0 6.843-5.547 12.39-12.39 12.39H67.559z"/></g><circle cx="386.095" cy="314.569" r="12.39" fill="#f9a493"/></svg>