<svg xmlns="http://www.w3.org/2000/svg" viewBox="0 0 496 496"><path d="M400 437.6v-420c0-8-9.6-17.6-17.6-17.6H113.6C105.6 0 96 9.6 96 17.6v460.8c0 8 9.6 17.6 17.6 17.6h228l58.4-58.4z" fill="#dbd8c3"/><path d="M344 492l56-54.4v-420c0-8-9.6-17.6-17.6-17.6H344" fill="#c6c3af"/><path fill="#18aa8e" d="M120 32h256v200H120z"/><path fill="#0a997d" d="M120 32h256v200"/><path d="M381.6 455.2l-191.2-192-65.6 66.4L290.4 496h51.2zM400 304.8l-32.8-32-33.6 33.6L400 372zm-80.8 14.4l-32.8 33.6 99.2 98.4 14.4-13.6v-40z" fill="#c6c3af"/><circle cx="302.4" cy="336" r="24" fill="#ea1f0a"/><ellipse transform="rotate(-134.999 292.138 322.832)" cx="292.138" cy="322.83" rx="4" ry="8.8" fill="#ef683f"/><path d="M319.2 319.2c9.6 9.6 9.6 24 0 33.6s-24 9.6-33.6 0" fill="#aa2011"/><circle cx="348.8" cy="289.6" r="24" fill="#ea1f0a"/><ellipse transform="rotate(-134.999 338.077 275.879)" cx="338.076" cy="275.877" rx="4" ry="8.8" fill="#ef683f"/><path d="M365.6 272.8c9.6 9.6 9.6 24 0 33.6s-24 9.6-33.6 0" fill="#aa2011"/><path d="M221.6 296H192v-29.6c0-3.2-2.4-5.6-5.6-5.6h-21.6c-3.2 0-5.6 2.4-5.6 5.6V296h-29.6c-3.2 0-5.6 2.4-5.6 5.6v21.6c0 3.2 2.4 5.6 5.6 5.6h29.6v29.6c0 3.2 2.4 5.6 5.6 5.6h21.6c3.2 0 5.6-2.4 5.6-5.6v-29.6h29.6c3.2 0 5.6-2.4 5.6-5.6v-21.6c0-2.4-2.4-5.6-5.6-5.6z" fill="#353a3a"/><path d="M123.2 324c0 3.2 2.4 5.6 5.6 5.6h29.6v29.6c0 3.2 2.4 5.6 5.6 5.6h21.6c3.2 0 5.6-2.4 5.6-5.6v-29.6h29.6c3.2 0 5.6-2.4 5.6-5.6v-21.6c0-3.2-2.4-5.6-5.6-5.6H192" fill="#1a1e1e"/><circle cx="175.2" cy="312.8" r="6.4" fill="#353a3a"/><path d="M184 269.6c0 1.6-.8 2.4-2.4 2.4h-19.2c-1.6 0-2.4-.8-2.4-2.4v-3.2c0-1.6.8-2.4 2.4-2.4h19.2c1.6 0 2.4.8 2.4 2.4v3.2zm-32 40c0 1.6-.8 2.4-2.4 2.4h-19.2c-1.6 0-2.4-.8-2.4-2.4v-3.2c0-1.6.8-2.4 2.4-2.4h19.2c1.6 0 2.4.8 2.4 2.4v3.2zm72 0c0 1.6-.8 2.4-2.4 2.4h-19.2c-1.6 0-2.4-.8-2.4-2.4v-3.2c0-1.6.8-2.4 2.4-2.4h19.2c1.6 0 2.4.8 2.4 2.4v3.2z" fill="#5b6060"/><path d="M165.6 449.6c-.8-.8-.8-1.6 0-2.4l45.6-45.6c.8-.8 1.6-.8 2.4 0l11.2 11.2c.8.8.8 1.6 0 2.4l-45.6 45.6c-.8.8-1.6.8-2.4 0l-11.2-11.2z" fill="#f9a12c"/><path d="M165.6 449.6c-.8-.8-.8-1.6 0-2.4l45.6-45.6c.8-.8 1.6-.8 2.4 0l11.2 11.2c.8.8.8 1.6 0 2.4" fill="#e88813"/><path d="M213.6 449.6c-.8-.8-.8-1.6 0-2.4l45.6-45.6c.8-.8 1.6-.8 2.4 0l11.2 11.2c.8.8.8 1.6 0 2.4l-45.6 45.6c-.8.8-1.6.8-2.4 0l-11.2-11.2z" fill="#f9a12c"/><path d="M213.6 449.6c-.8-.8-.8-1.6 0-2.4l45.6-45.6c.8-.8 1.6-.8 2.4 0l11.2 11.2c.8.8.8 1.6 0 2.4" fill="#e88813"/><path fill="#c6c3af" d="M112 232h272v16H112z"/></svg>