<svg width="24" height="24" data-name="Layer 1" xmlns="http://www.w3.org/2000/svg"><path d="M14.461.391a8.333 8.333 0 00-8.91 2.586l3.946 3.316z" fill="#1a73e8"/><path d="M5.552 2.977a8.312 8.312 0 00-1.947 5.356 9.332 9.332 0 00.824 3.976l5.068-6.016z" fill="#ea4335"/><path d="M11.938 5.15a3.183 3.183 0 013.193 3.183 3.152 3.152 0 01-.763 2.06l4.965-5.902A8.364 8.364 0 0014.461.37L9.497 6.293a3.162 3.162 0 012.44-1.143z" fill="#4285f4"/><path d="M11.938 11.526a3.193 3.193 0 01-3.193-3.193 3.162 3.162 0 01.752-2.06l-5.068 6.035a29.53 29.53 0 003.78 5.408l6.18-7.323a3.162 3.162 0 01-2.451 1.133z" fill="#fbbc04"/><path d="M14.255 19.714c2.781-4.346 6.015-6.324 6.015-11.33a8.343 8.343 0 00-.937-3.842L8.21 17.716c.474.618.948 1.277 1.411 1.998 1.7 2.616 1.226 4.182 2.318 4.182s.618-1.566 2.317-4.182z" fill="#34a853"/></svg>