<svg xmlns="http://www.w3.org/2000/svg" viewBox="0 0 496 496"><path d="M496 285.6c0 73.6-111.2 2.4-248 2.4S0 359.2 0 285.6 111.2 28.8 248 28.8 496 212 496 285.6z" fill="#f74faf"/><path d="M248 28.8c136.8 0 248 182.4 248 256.8S384.8 288 248 288" fill="#ed3596"/><path d="M496 285.6c0 73.6-111.2 133.6-248 133.6S0 359.2 0 285.6 111.2 51.2 248 51.2 496 212 496 285.6z" fill="#bc005e"/><path d="M496 285.6c0 73.6-111.2 2.4-248 2.4S0 359.2 0 285.6 111.2 51.2 248 51.2 496 212 496 285.6z" fill="#dd1f83"/><path d="M248 51.2c136.8 0 248 160.8 248 234.4S384.8 288 248 288" fill="#cc1b70"/><path d="M390.4 381.6c0 52.8-64 79.2-142.4 79.2s-142.4-26.4-142.4-79.2 64-68 142.4-68 142.4 15.2 142.4 68z" fill="#f2d6a7"/><path d="M390.4 381.6c0 52.8-64 85.6-142.4 85.6s-142.4-32.8-142.4-85.6 64-68 142.4-68 142.4 15.2 142.4 68z" fill="#d6b47c"/><path d="M390.4 381.6c0 52.8-64 79.2-142.4 79.2s-142.4-26.4-142.4-79.2 64-68 142.4-68 142.4 15.2 142.4 68z" fill="#f2d6a7"/><path d="M248 313.6c78.4 0 142.4 15.2 142.4 68s-64 79.2-142.4 79.2" fill="#e5c58c"/><path d="M248 340c75.2 0 136.8 0 141.6 47.2 0-2.4.8-4 .8-6.4 0-52.8-64-68-142.4-68s-142.4 15.2-142.4 68c0 2.4 0 4 .8 6.4C111.2 340 172.8 340 248 340z" fill="#d6b47c"/><circle cx="248" cy="162.4" r="89.6" fill="#ead0df"/><path d="M248 72.8c49.6 0 89.6 40 89.6 89.6S297.6 252 248 252" fill="#ddbad0"/><path d="M98.4 204c0-27.2-11.2-52-29.6-68.8C26.4 188 0 249.6 0 285.6c0 5.6.8 9.6 1.6 13.6h.8c52.8 0 96-42.4 96-95.2z" fill="#ead0df"/><path d="M.8 292.8c0 2.4.8 4 1.6 6.4h.8c52.8 0 96-43.2 96-96 0-24.8-9.6-47.2-24.8-64C31.2 186.4 4 240.8 0 278.4v7.2c0 2.4 0 4.8.8 7.2z" fill="#ddbad0"/><path d="M397.6 204c0-27.2 11.2-52 29.6-68.8 42.4 53.6 68.8 115.2 68.8 151.2 0 5.6-.8 9.6-1.6 13.6h-.8c-52.8-.8-96-43.2-96-96z" fill="#ead0df"/><path d="M495.2 292.8c0 2.4-.8 4-1.6 6.4h-.8c-52.8 0-96-43.2-96-96 0-24.8 9.6-47.2 24.8-64 42.4 46.4 69.6 101.6 72.8 138.4v7.2c1.6 3.2 1.6 5.6.8 8z" fill="#ddbad0"/><path d="M197.6 371.2c0 12.8-7.2 28.8-15.2 28.8s-15.2-16-15.2-28.8 7.2-24 15.2-24 15.2 11.2 15.2 24z" fill="#e5c58c"/><ellipse cx="182.4" cy="371.2" rx="15.2" ry="24" fill="#495156"/><path d="M182.4 348c8.8 0 15.2 10.4 15.2 24s-7.2 24-15.2 24" fill="#293033"/><path d="M203.2 398.4c0 2.4-9.6 2.4-20.8 2.4s-20.8 0-20.8-2.4 9.6-4.8 20.8-4.8c11.2 0 20.8 2.4 20.8 4.8z" fill="#f4e1c6"/><path d="M329.6 371.2c0 12.8-7.2 28.8-15.2 28.8s-15.2-16-15.2-28.8 7.2-24 15.2-24 15.2 11.2 15.2 24z" fill="#e5c58c"/><ellipse cx="313.6" cy="371.2" rx="15.2" ry="24" fill="#495156"/><path d="M313.6 348c8.8 0 15.2 10.4 15.2 24s-7.2 24-15.2 24" fill="#293033"/><path d="M335.2 398.4c0 2.4-9.6 2.4-20.8 2.4-11.2 0-20.8 0-20.8-2.4s9.6-4.8 20.8-4.8 20.8 2.4 20.8 4.8z" fill="#f4e1c6"/></svg>