<svg xmlns="http://www.w3.org/2000/svg" viewBox="0 0 495 495"><path fill="#ffda44" d="M336.763 84.876h-89.806v101.529h-40V84.876H117.15v249.511h219.613z"/><path fill="#ffcd00" d="M336.763 84.876h69.898v249.511h-69.898z"/><path d="M338.685 444.649c0 27.764 22.587 50.351 50.351 50.351V394.299c-27.765 0-50.351 22.587-50.351 50.35zm-254.26 0c0 27.764 22.587 50.351 50.351 50.351V394.299c-27.764 0-50.351 22.587-50.351 50.35z" fill="#2488ff"/><path d="M389.035 394.299V495c27.764 0 50.351-22.587 50.351-50.351s-22.587-50.35-50.351-50.35zm-254.26 0V495c27.764 0 50.351-22.587 50.351-50.351s-22.587-50.35-50.351-50.35z" fill="#005ece"/><path fill="#2488ff" d="M87.253 334.387V0H18.441v40h28.812v334.387h429.306v-40z"/><path fill="#ff5023" d="M206.957 84.876h40v101.529h-40z"/></svg>