<svg xmlns="http://www.w3.org/2000/svg" viewBox="0 0 489.142 489.142"><path fill="#005ece" d="M0 10h40v382.414H0zm70.521 0h40v233.205h-40zm0 272.205h40v80.208h-40zM141.043 10h40v233.205h-40zm0 272.205h40v80.208h-40zM211.564 10h40v233.205h-40zm110.521 0h-40v218.939a105.717 105.717 0 0140-12.272V10zm70.522 0h-40v208.02a105.969 105.969 0 0140 16.626V10z"/><path d="M399.207 322.674c0-1.846-.096-3.669-.244-5.478-.036-.438-.056-.88-.1-1.315-1.571-15.419-8.437-29.289-18.735-39.78-.145-.148-.283-.304-.43-.451-.147-.147-.303-.285-.451-.43-10.491-10.298-24.361-17.164-39.78-18.735-.435-.044-.878-.064-1.315-.101a67.048 67.048 0 00-5.478-.244v133.066c36.686.002 66.533-29.845 66.533-66.532z" fill="#46f8ff"/><path d="M332.674 389.208V256.142c-36.687 0-66.533 29.847-66.533 66.533 0 1.846.096 3.669.244 5.478.036.438.056.88.1 1.315 1.571 15.419 8.437 29.289 18.735 39.78.145.148.283.304.43.451.147.146.303.284.451.43 10.491 10.298 24.361 17.164 39.78 18.735.435.044.878.064 1.315.101a67.52 67.52 0 005.478.243z" fill="#9bfbff"/><path d="M489.142 450.858l-68.362-68.362a107.41 107.41 0 01-28.284 28.284l68.362 68.362 28.284-28.284z" fill="#005ece"/><path d="M420.78 382.496c11.623-17.064 18.427-37.663 18.427-59.822 0-36.535-18.49-68.83-46.6-88.029a105.969 105.969 0 00-40-16.626 106.644 106.644 0 00-19.933-1.878c-3.573 0-7.105.18-10.588.525a105.735 105.735 0 00-40 12.272c-33.287 18.037-55.944 53.29-55.944 93.735 0 58.743 47.791 106.533 106.533 106.533 22.159 0 42.758-6.804 59.822-18.427a107.387 107.387 0 0028.283-28.283zm-93.584 6.468c-.438-.036-.88-.056-1.315-.101-15.419-1.571-29.289-8.437-39.78-18.735-.148-.146-.304-.283-.451-.43-.147-.147-.284-.303-.43-.451-10.298-10.491-17.164-24.361-18.735-39.78-.044-.436-.064-.877-.1-1.315a67.068 67.068 0 01-.244-5.478c0-36.687 29.846-66.533 66.533-66.533 1.846 0 3.67.096 5.478.244.438.036.88.056 1.315.101 15.419 1.571 29.289 8.437 39.78 18.735.148.146.304.283.451.43.147.146.284.302.43.451 10.298 10.491 17.164 24.361 18.735 39.78.044.436.064.877.1 1.315.148 1.808.244 3.631.244 5.478 0 36.687-29.847 66.533-66.533 66.533-1.846 0-3.669-.096-5.478-.244z" fill="#2488ff"/></svg>