<svg xmlns="http://www.w3.org/2000/svg" viewBox="0 0 480 480"><path fill="#3eb500" d="M80 128h320v352H80z"/><g fill="#3da004"><path d="M384 128H80v48.8L384 480h16V140.8z"/><path d="M240 128h160v352H240z"/></g><path fill="#398c03" d="M400 158.4L310.4 128H80v48.8l6.4 4 313.6 112z"/><path d="M448 160.8c0 8-14.4 15.2-23.2 15.2H47.2c-8 0-15.2-6.4-15.2-15.2V15.2C32 6.4 38.4 0 47.2 0h385.6c8 0 15.2 6.4 15.2 15.2v145.6z" fill="#4cce00"/><path d="M448 16v148.8c0 8-10.4 19.2-19.2 19.2H51.2c-8 0-19.2-10.4-19.2-19.2V16" fill="#3eb500"/><path d="M36 16l391.2 164c8 0 20.8-6.4 20.8-15.2V16H36z" fill="#49ad09"/><path d="M32 152v12.8c0 8 10.4 19.2 19.2 19.2h377.6c8 0 19.2-10.4 19.2-19.2V152H32z" fill="#3da004"/><g fill="#4cce00"><path d="M56 104.8c0 4-1.6 7.2-4 7.2s-4-3.2-4-7.2V47.2c0-4 1.6-7.2 4-7.2s4 3.2 4 7.2v57.6zm64 192c0 4-3.2 7.2-7.2 7.2h-2.4c-4 0-7.2-3.2-7.2-7.2v-58.4c0-4 3.2-7.2 7.2-7.2h2.4c4 0 7.2 3.2 7.2 7.2v58.4zm0 96c0 4-3.2 7.2-7.2 7.2h-2.4c-4 0-7.2-3.2-7.2-7.2v-58.4c0-4 3.2-7.2 7.2-7.2h2.4c4 0 7.2 3.2 7.2 7.2v58.4z"/><circle cx="52.8" cy="129.6" r="7.2"/></g></svg>