<svg xmlns="http://www.w3.org/2000/svg" viewBox="0 0 495 495"><path d="M247.471 314.297C233.009 325.682 214.791 332.5 195 332.5c-46.869 0-85-38.131-85-85s38.131-85 85-85c19.791 0 38.009 6.818 52.471 18.203.029-.023.029-91.372.029-91.372H0v316.338h247.5s0-91.349-.029-91.372z" fill="#2488ff"/><path d="M247.5 89.331v91.348c14.867-11.681 33.332-18.179 52.5-18.179 46.869 0 85 38.131 85 85s-38.131 85-85 85c-19.168 0-37.633-6.499-52.5-18.18v91.349H495V89.331H247.5z" fill="#005ece"/><path d="M280 247.5c0 27.078-12.742 51.22-32.529 66.797C262.367 326.001 280.832 332.5 300 332.5c46.869 0 85-38.131 85-85s-38.131-85-85-85c-19.168 0-37.633 6.499-52.5 18.179 19.757 15.6 32.5 39.743 32.5 66.821z" fill="#ffcd00"/><path d="M280 247.5c0-27.078-12.743-51.221-32.529-66.797C233.009 169.318 214.791 162.5 195 162.5c-46.869 0-85 38.131-85 85s38.131 85 85 85c19.791 0 38.009-6.818 52.471-18.203C267.258 298.72 280 274.578 280 247.5z" fill="#ff5023"/></svg>