<svg xmlns="http://www.w3.org/2000/svg" viewBox="0 0 502.313 502.313"><path fill="#ff5023" d="M228.43 256.556h22.726v13.59H228.43z"/><path d="M213.671 283.106v-63.9h37.486V0l-41.49 42.574-54.624-23.456-22.039 55.211-59.442-.767.767 59.442-55.211 22.039 23.456 54.624L0 251.156l42.574 41.49-23.456 54.624 55.211 22.039-.767 59.442 59.442-.767 22.039 55.211 54.624-23.456 41.49 42.574V283.106h-37.486zm-16.74 0h-11.88l-29.43-36.54v36.54h-14.76v-63.9h11.52l29.79 37.53v-37.53h14.76v63.9z" fill="#ff5023"/><path fill="#ff5023" d="M228.43 232.166h22.726v12.42H228.43z"/><path d="M459.738 292.646l42.574-41.49-42.574-41.49 23.457-54.624-55.212-22.039.767-59.442-59.441.767-22.038-55.211-54.624 23.456L251.156 0v219.206h6.614v12.96h-6.614v12.42h2.474v11.97h-2.474v13.59h7.425v12.96h-7.425v219.206l41.49-42.574 54.624 23.456 22.038-55.211 59.441.767-.767-59.442 55.212-22.039-23.456-54.623zm-123.848-9.54h-12.33l-10.17-25.02-10.08 25.02h-12.42l-25.47-63.9h16.021l16.109 46.98 6.3-17.19-10.529-29.7h13.59l6.479 20.43 6.48-20.43h13.68l-10.71 29.7 6.48 17.19 16.02-46.98h16.11l-25.56 63.9z" fill="#ff3501"/><path fill="#ffda44" d="M182.172 256.736l-29.79-37.53h-11.52v63.9h14.759v-36.54l29.431 36.54h11.879v-63.9h-14.759zm31.499 26.37h44.91v-12.96H228.43v-13.59h25.201v-11.97H228.43v-12.42h29.34v-12.96h-44.099zm115.65-16.92l-6.48-17.19 10.71-29.7h-13.68l-6.481 20.43-6.479-20.43h-13.59l10.529 29.7-6.299 17.19-16.11-46.98h-16.02l25.469 63.9h12.42l10.08-25.02 10.17 25.02h12.33l25.561-63.9h-16.11z"/></svg>