<svg xmlns="http://www.w3.org/2000/svg" viewBox="0 0 502.313 502.313"><path d="M196.22 334.376l-28.284-28.284 83.22-83.22V0l-41.49 42.574-54.624-23.456-22.039 55.211-59.442-.767.767 59.442-55.211 22.039 23.456 54.624L0 251.156l42.574 41.49-23.456 54.624 55.211 22.039-.767 59.442 59.442-.767 22.039 55.211 54.624-23.456 41.49 42.574V279.44l-54.937 54.936zM145.34 195.34c0-27.57 22.43-50 50-50s50 22.43 50 50-22.43 50-50 50-50-22.429-50-50z" fill="#ff5023"/><path d="M205.34 195.34c0-5.514-4.486-10-10-10s-10 4.486-10 10 4.486 10 10 10 10-4.486 10-10z" fill="#ff5023"/><path d="M459.738 292.646l42.574-41.49-42.574-41.49 23.457-54.624-55.212-22.039.767-59.442-59.441.767-22.038-55.211-54.624 23.456L251.156 0v222.872l54.936-54.936 28.284 28.284-83.22 83.22v222.872l41.49-42.574 54.624 23.456 22.038-55.211 59.441.767-.767-59.442 55.212-22.039-23.456-54.623zm-152.766 64.326c-27.57 0-50-22.43-50-50s22.43-50 50-50 50 22.43 50 50-22.43 50-50 50z" fill="#ff3501"/><path d="M306.972 296.972c-5.514 0-10 4.486-10 10s4.486 10 10 10 10-4.486 10-10-4.486-10-10-10z" fill="#ff3501"/><path d="M245.34 195.34c0-27.57-22.43-50-50-50s-50 22.43-50 50 22.43 50 50 50 50-22.429 50-50zm-60 0c0-5.514 4.486-10 10-10s10 4.486 10 10-4.486 10-10 10-10-4.486-10-10zm121.632 61.632c-27.57 0-50 22.43-50 50s22.43 50 50 50 50-22.43 50-50-22.43-50-50-50zm0 60c-5.514 0-10-4.486-10-10s4.486-10 10-10 10 4.486 10 10-4.486 10-10 10zM196.22 334.376l54.936-54.936 83.22-83.22-28.284-28.284-54.936 54.936-83.22 83.22z" fill="#ffda44"/></svg>