<svg xmlns="http://www.w3.org/2000/svg" viewBox="0 0 502.313 502.313"><path d="M240.493 257.951v25.2h-14.76v-63.9h25.423V0l-41.49 42.574-54.624-23.456-22.039 55.211-59.442-.767.767 59.442-55.211 22.039 23.456 54.624L0 251.156l42.574 41.49-23.456 54.624 55.211 22.039-.767 59.442 59.442-.767 22.039 55.211 54.624-23.456 41.49 42.574V257.951h-10.664zm-30.196 5.58c-1.59 3.901-3.795 7.335-6.614 10.305-2.821 2.97-6.181 5.355-10.08 7.155-3.901 1.8-8.161 2.7-12.78 2.7-4.74 0-9.061-.93-12.96-2.79-3.901-1.859-7.231-4.305-9.989-7.335-2.762-3.029-4.906-6.494-6.436-10.395a32.741 32.741 0 01-2.295-12.06c0-4.199.795-8.249 2.385-12.15 1.59-3.899 3.81-7.335 6.66-10.305 2.85-2.97 6.225-5.339 10.125-7.11 3.899-1.769 8.159-2.655 12.779-2.655 4.74 0 9.06.931 12.961 2.79 3.899 1.861 7.229 4.32 9.99 7.38a33.354 33.354 0 016.39 10.44c1.499 3.901 2.25 7.861 2.25 11.88 0 4.201-.796 8.251-2.386 12.15z" fill="#ff5023"/><path d="M193.333 237.836a16.088 16.088 0 00-5.265-4.23c-2.069-1.049-4.455-1.575-7.155-1.575-2.82 0-5.265.556-7.334 1.665-2.07 1.111-3.812 2.565-5.221 4.365-1.41 1.8-2.461 3.856-3.15 6.165a24.597 24.597 0 00-1.035 7.065c0 2.461.36 4.846 1.08 7.155.721 2.311 1.785 4.365 3.195 6.165 1.409 1.8 3.164 3.24 5.266 4.32 2.1 1.08 4.5 1.62 7.199 1.62 2.82 0 5.279-.569 7.381-1.71 2.1-1.139 3.838-2.624 5.219-4.455 1.381-1.83 2.415-3.899 3.105-6.21a24.587 24.587 0 001.035-7.065c0-2.459-.359-4.845-1.08-7.155-.72-2.309-1.8-4.349-3.24-6.12zm47.16-5.625h10.664v13.77h-10.664z" fill="#ff5023"/><path d="M459.738 292.646l42.574-41.49-42.574-41.49 23.457-54.624-55.212-22.039.767-59.442-59.441.767-22.038-55.211-54.624 23.456L251.156 0v219.251h17.956v12.96h-17.956v13.77h12.917v11.97h-12.917v244.362l41.49-42.574 54.624 23.456 22.038-55.211 59.441.767-.767-59.442 55.212-22.039-23.456-54.624zm-134.917-60.435h-28.62v13.77h23.58v11.97h-23.58v25.2h-14.76v-63.9h43.38v12.96zm28.348 50.94H338.77v-14.94h14.399v14.94zm0-25.38H338.77v-39.15h14.399v39.15z" fill="#ff3501"/><path d="M204.043 229.061c-2.762-3.06-6.091-5.52-9.99-7.38-3.901-1.859-8.221-2.79-12.961-2.79-4.62 0-8.88.886-12.779 2.655-3.9 1.771-7.275 4.14-10.125 7.11-2.851 2.97-5.07 6.406-6.66 10.305a31.895 31.895 0 00-2.385 12.15c0 4.14.765 8.161 2.295 12.06 1.529 3.901 3.674 7.366 6.436 10.395 2.758 3.03 6.088 5.476 9.989 7.335 3.899 1.86 8.22 2.79 12.96 2.79 4.619 0 8.879-.9 12.78-2.7 3.899-1.8 7.259-4.185 10.08-7.155 2.819-2.97 5.024-6.404 6.614-10.305a31.881 31.881 0 002.386-12.15c0-4.019-.751-7.979-2.25-11.88a33.354 33.354 0 00-6.39-10.44zm-7.425 29.115c-.69 2.311-1.725 4.38-3.105 6.21-1.381 1.831-3.119 3.316-5.219 4.455-2.102 1.141-4.561 1.71-7.381 1.71-2.699 0-5.1-.54-7.199-1.62-2.102-1.08-3.856-2.52-5.266-4.32-1.41-1.8-2.475-3.854-3.195-6.165a23.896 23.896 0 01-1.08-7.155c0-2.399.346-4.755 1.035-7.065.689-2.309 1.74-4.365 3.15-6.165 1.409-1.8 3.15-3.254 5.221-4.365 2.069-1.109 4.514-1.665 7.334-1.665 2.7 0 5.086.526 7.155 1.575a16.108 16.108 0 015.265 4.23c1.44 1.771 2.521 3.811 3.24 6.12a23.874 23.874 0 011.08 7.155c0 2.4-.346 4.756-1.035 7.065zm29.115 24.975h14.76v-25.2h23.58v-11.97h-23.58v-13.77h28.619v-12.96h-43.379zm55.708 0h14.76v-25.2h23.58v-11.97h-23.58v-13.77h28.62v-12.96h-43.38zm57.329-14.94h14.399v14.94H338.77zm0-49.59h14.399v39.15H338.77z" fill="#ffda44"/></svg>