<svg xmlns="http://www.w3.org/2000/svg" viewBox="0 0 499.2 499.2"><path fill="#5ee5cf" d="M481.6 499.2h-464l159.2-368h145.6z"/><path d="M303.2 153.6c0 24-24 42.4-53.6 42.4S196 176.8 196 153.6c0-24 24-42.4 53.6-42.4s53.6 18.4 53.6 42.4z" fill="#ea1f0a"/><path d="M287.2 123.2c20.8 16.8 20.8 44 0 60.8s-54.4 16.8-76 0" fill="#c61109"/><path d="M190.4 137.6c0 24-24 42.4-53.6 42.4s-53.6-19.2-53.6-42.4c0-24 24-42.4 53.6-42.4s53.6 19.2 53.6 42.4z" fill="#ea1f0a"/><path d="M174.4 107.2c20.8 16.8 20.8 44 0 60.8s-54.4 16.8-76 0" fill="#c61109"/><path d="M416 137.6c0 24-24 42.4-53.6 42.4s-53.6-19.2-53.6-42.4c0-24 24-42.4 53.6-42.4s53.6 19.2 53.6 42.4z" fill="#ea1f0a"/><path d="M400 107.2c20.8 16.8 20.8 44 0 60.8s-54.4 16.8-76 0" fill="#c61109"/><path d="M374.4 78.4C368 44 314.4 0 249.6 0S131.2 44 124.8 78.4c-67.2 7.2-111.2 20-111.2 34.4 0 22.4 105.6 40 236 40s236-18.4 236-40c0-14.4-44.8-27.2-111.2-34.4z" fill="#343a3a"/><path d="M249.6 152.8c130.4 0 236-18.4 236-40 0-14.4-44.8-27.2-111.2-34.4C368 44 314.4 0 249.6 0" fill="#1e2323"/><circle cx="188" cy="79.2" r="15.2" fill="#ffc41d"/><path d="M198.4 68.8c5.6 5.6 5.6 15.2 0 21.6-5.6 5.6-15.2 5.6-21.6 0" fill="#f4a211"/><circle cx="249.6" cy="79.2" r="15.2" fill="#ffc41d"/><path d="M260 68.8c5.6 5.6 5.6 15.2 0 21.6-5.6 5.6-15.2 5.6-21.6 0" fill="#f4a211"/><circle cx="311.2" cy="79.2" r="15.2" fill="#ffc41d"/><path d="M322.4 68.8c5.6 5.6 5.6 15.2 0 21.6-5.6 5.6-15.2 5.6-21.6 0" fill="#f4a211"/><path fill="#39c9ad" d="M428.8 377.6L374.4 432l-33.6-33.6-32 31.2-111.2-111.2-85.6 86.4-36.8-39.2-57.6 133.6h464z"/><path fill="#2aba9e" d="M428.8 377.6L374.4 448l-33.6-49.6-32 55.2-111.2-135.2L112 444l-36.8-78.4-57.6 133.6h464z"/><path d="M346.4 265.6c-1.6 0-3.2 0-4.8.8-3.2-3.2-7.2-4.8-12-4.8h-.8c-.8-8.8-8-16-16.8-16-7.2 0-12.8 4.8-15.2 10.4h-2.4c-6.4 0-12.8 4-15.2 9.6-2.4-.8-4-1.6-6.4-1.6-9.6 0-16.8 7.2-16.8 16.8s7.2 16.8 16.8 16.8h2.4c3.2 4.8 8 8.8 14.4 8.8 4 0 7.2-1.6 9.6-3.2 3.2 4 8 6.4 12.8 6.4s8.8-1.6 12-4.8c1.6.8 3.2.8 4.8.8 5.6 0 10.4-2.4 13.6-6.4 1.6 0 2.4.8 4 .8 9.6 0 16.8-7.2 16.8-16.8s-8-17.6-16.8-17.6z" fill="#39c9ad"/><path d="M345.6 271.2c-1.6 0-3.2 0-4 .8-3.2-2.4-7.2-3.2-12-3.2h-.8c-.8-5.6-8-10.4-16.8-10.4-7.2 0-12.8 3.2-15.2 7.2h-2.4c-6.4 0-12.8 2.4-15.2 6.4-2.4-.8-4-.8-6.4-.8-8.8 0-16.8 4.8-16.8 11.2 0 6.4 7.2 11.2 16.8 11.2h2.4c3.2 3.2 8 5.6 14.4 5.6 4 0 7.2-.8 9.6-2.4 3.2 2.4 8 4 12.8 4s8.8-1.6 12-3.2c1.6 0 3.2.8 4.8.8 5.6 0 10.4-1.6 13.6-4.8h4c8.8 0 16.8-4.8 16.8-11.2-1.6-5.6-8.8-11.2-17.6-11.2z" fill="#2aba9e"/><path d="M164 249.6c1.6 0 2.4 0 3.2.8 2.4-2.4 5.6-4 9.6-4h.8c0-7.2 6.4-12.8 13.6-12.8 5.6 0 10.4 3.2 12.8 8.8h1.6c5.6 0 10.4 3.2 12 8 1.6-.8 3.2-.8 5.6-.8 7.2 0 13.6 6.4 13.6 13.6 0 7.2-5.6 13.6-13.6 13.6h-1.6c-2.4 4-6.4 7.2-12 7.2-3.2 0-5.6-.8-8-2.4-2.4 3.2-6.4 4.8-10.4 4.8s-7.2-1.6-9.6-4c-1.6 0-2.4.8-4 .8-4.8 0-8-2.4-10.4-5.6-.8 0-2.4.8-3.2.8-7.2 0-13.6-6.4-13.6-13.6 0-8.8 5.6-15.2 13.6-15.2z" fill="#39c9ad"/><path d="M164 254.4h3.2c2.4-1.6 5.6-2.4 9.6-2.4h.8c0-4.8 6.4-8.8 13.6-8.8 5.6 0 10.4 2.4 12 5.6h1.6c5.6 0 9.6 2.4 12 5.6 1.6-.8 3.2-.8 5.6-.8 7.2 0 13.6 4 13.6 8.8s-5.6 8.8-13.6 8.8h-1.6c-2.4 2.4-6.4 4.8-11.2 4.8-3.2 0-5.6-.8-8-1.6-2.4 2.4-6.4 3.2-10.4 3.2s-7.2-.8-9.6-2.4c-1.6 0-2.4.8-4 .8-4 0-8-1.6-10.4-4H164c-7.2 0-13.6-4-13.6-8.8.8-4.8 6.4-8.8 13.6-8.8z" fill="#2aba9e"/></svg>