<svg xmlns="http://www.w3.org/2000/svg" viewBox="0 0 496 496"><path d="M76.218 337.855l-36.774 36.764L2.68 337.845l36.774-36.764zm82.482.207l-36.774 36.764-36.764-36.774 36.774-36.764zm81.3.338l-35.2 36.8-36.8-36.8 36.8-36.8z" fill="#6b0500"/><path d="M39.2 333.6l41.6 40.8 41.6-40.8 40.8 40.8 40-40.8L240 372V202.4c0-44-33.6-81.6-78.4-81.6h-80c-44 0-81.6 37.6-81.6 81.6v168.8l39.2-37.6z" fill="#ce351b"/><path d="M80.8 374.4l41.6-36.8 40.8 36.8 40-40.8L240 372V202.4c0-44-33.6-81.6-78.4-81.6H80" fill="#a01005"/><circle cx="82.4" cy="204" r="24.8" fill="#fff"/><path d="M107.2 204c0 13.6-11.2 24.8-24.8 24.8S57.6 217.6 57.6 204" fill="#e0e0e0"/><path d="M82.4 193.6c-.8 0-2.4 0-3.2.8 1.6.8 3.2 2.4 3.2 4.8 0 3.2-2.4 5.6-5.6 5.6-2.4 0-4-.8-4.8-2.4v2.4c0 5.6 4.8 11.2 11.2 11.2s11.2-4.8 11.2-11.2-5.6-11.2-12-11.2z"/><circle cx="161.6" cy="204" r="24.8" fill="#fff"/><path d="M185.6 204c0 13.6-11.2 24.8-24.8 24.8S136 217.6 136 204" fill="#e0e0e0"/><path d="M161.6 193.6c-.8 0-2.4 0-3.2.8 1.6.8 3.2 2.4 3.2 4.8 0 3.2-2.4 5.6-5.6 5.6-2.4 0-4-.8-4.8-2.4v2.4c0 5.6 4.8 11.2 11.2 11.2s11.2-4.8 11.2-11.2-6.4-11.2-12-11.2z"/><ellipse transform="rotate(-131.003 38.372 154.355)" cx="38.372" cy="154.356" rx="7.2" ry="26.401" fill="#f25b4c"/><path d="M328 338.4l-36.8 36.8-35.2-36.8 35.2-36.8zm82.708-.344l-36.774 36.764-36.764-36.774 36.774-36.764zm82.482.183l-36.774 36.764-36.764-36.775 36.774-36.764z" fill="#1a4c00"/><path d="M292.8 333.6l40.8 40.8 40.8-40.8 40.8 40.8 41.6-40.8L496 372V202.4c0-44-37.6-81.6-81.6-81.6h-80c-44 0-78.4 37.6-78.4 81.6v168.8l36.8-37.6z" fill="#34b515"/><path d="M334.4 373.6l40-40 40.8 40.8 41.6-40.8L496 372V202.4c0-44-37.6-81.6-81.6-81.6H336" fill="#2b8700"/><circle cx="334.4" cy="204" r="24.8" fill="#fff"/><path d="M359.2 204c0 13.6-11.2 24.8-24.8 24.8-13.6 0-24.8-11.2-24.8-24.8" fill="#e0e0e0"/><path d="M334.4 193.6c-.8 0-2.4 0-3.2.8 1.6.8 3.2 2.4 3.2 4.8 0 3.2-2.4 5.6-5.6 5.6-2.4 0-4-.8-4.8-2.4v2.4c0 5.6 4.8 11.2 11.2 11.2s11.2-4.8 11.2-11.2-5.6-11.2-12-11.2z"/><circle cx="413.6" cy="204" r="24.8" fill="#fff"/><path d="M438.4 204c0 13.6-11.2 24.8-24.8 24.8-13.6 0-24.8-11.2-24.8-24.8" fill="#e0e0e0"/><path d="M413.6 193.6c-.8 0-2.4 0-3.2.8 1.6.8 3.2 2.4 3.2 4.8 0 3.2-2.4 5.6-5.6 5.6-2.4 0-4-.8-4.8-2.4v2.4c0 5.6 4.8 11.2 11.2 11.2s11.2-4.8 11.2-11.2-6.4-11.2-12-11.2z"/><ellipse transform="rotate(-131.003 290.37 154.344)" cx="290.372" cy="154.347" rx="7.2" ry="26.401" fill="#58f42c"/><path d="M350.4 256.8c1.6 8 11.2 20.8 24 20.8s22.4-12.8 24-20.8h-48z" fill="#1a4c00"/></svg>