<svg xmlns="http://www.w3.org/2000/svg" viewBox="0 0 487 487"><path d="M158.331 466.858h40v-48.377c-13.872-3.264-27.271-7.879-40-13.773v62.15z" fill="#ff7956"/><path d="M298.905 466.858h40v-62.17a208.56 208.56 0 01-40 13.806v48.364z" fill="#ff5023"/><path d="M51.594 225.045H0v40h51.594c-.802-6.594-1.224-13.266-1.224-20s.421-13.406 1.224-20z" fill="#ff7956"/><path d="M248.615 175.812c-14.355 0-27.976 2.627-40.481 7.807l-15.308-36.955c17.384-7.2 36.154-10.852 55.789-10.852.002 0 .002-70 .002-70-52.533 0-102.027 18.369-139.364 51.723-32.678 29.192-52.707 66.804-57.66 107.511-.802 6.594-1.224 13.266-1.224 20s.421 13.406 1.224 20c4.953 40.707 24.981 78.318 57.66 107.511 14.666 13.102 31.213 23.879 49.077 32.151 12.729 5.894 26.128 10.509 40 13.773 16.225 3.818 33.091 5.799 50.287 5.799.001 0 .001-248.468-.002-248.468z" fill="#ff9478"/><path d="M432.82 178.65c-10.67-24.229-27.076-46.044-48.183-64.026V20.142l-22.831 3.265c-1.977.283-44.719 6.832-74.171 45.882a219.863 219.863 0 00-39.018-3.477v70c19.636 0 38.407 3.652 55.793 10.854l-15.308 36.955c-12.508-5.181-26.129-7.809-40.485-7.809V424.28c17.192 0 34.048-1.96 50.287-5.786a208.56 208.56 0 0040-13.806 203.776 203.776 0 0027.952-15.739c29.384-19.759 52.399-46.914 65.945-77.508H487V178.65h-54.18z" fill="#ff7956"/><path d="M192.826 146.664l15.308 36.955c12.506-5.18 26.126-7.807 40.481-7.807 14.359 0 27.98 2.627 40.488 7.809l15.308-36.955c-17.386-7.202-36.157-10.854-55.793-10.854-19.638 0-38.408 3.651-55.792 10.852z" fill="#cd2a00"/></svg>