<svg xmlns="http://www.w3.org/2000/svg" viewBox="0 0 511.989 511.989"><path d="M255.994 213.336c-5.906 0-10.672-4.781-10.672-10.672v-42.663c0-5.891 4.766-10.664 10.672-10.664 5.874 0 10.655 4.773 10.655 10.664v42.663c0 5.891-4.781 10.672-10.655 10.672z" fill="#f6bb42"/><path d="M309.321 192h-106.67c-5.891 0-10.656 4.773-10.656 10.664v42.671c0 5.891 4.765 10.664 10.656 10.664h106.67c5.891 0 10.672-4.773 10.672-10.664v-42.671c0-5.89-4.781-10.664-10.672-10.664z" fill="#434a54"/><path d="M479.989 362.653H330.648c-5.891 0-10.655 4.781-10.655 10.688v106.652a10.648 10.648 0 0010.655 10.656h149.341c5.875 0 10.656-4.766 10.656-10.656V373.341c0-5.907-4.781-10.688-10.656-10.688zm-298.665-42.656H31.999c-5.906 0-10.671 4.781-10.671 10.656v149.34c0 5.891 4.765 10.656 10.671 10.656h149.325c5.891 0 10.672-4.766 10.672-10.656v-149.34c-.001-5.875-4.782-10.656-10.672-10.656z" fill="#fc6e51"/><path d="M330.648 234.663H181.324c-5.891 0-10.671 4.781-10.671 10.672v234.658c0 5.891 4.781 10.656 10.671 10.656h149.325c5.891 0 10.672-4.766 10.672-10.656V245.335c-.001-5.89-4.782-10.672-10.673-10.672z" fill="#ffce54"/><path d="M501.316 490.649H10.656C4.765 490.649 0 485.883 0 479.993s4.765-10.654 10.656-10.654h490.661c5.891 0 10.672 4.764 10.672 10.654s-4.782 10.656-10.673 10.656z" fill="#434a54"/><path d="M200.542 138.674c-1.234 0-2.5-.219-3.734-.688-46.717-17.515-57.577-80.256-58.014-82.912-.5-3.094.375-6.25 2.391-8.641 2.031-2.382 5-3.765 8.141-3.765h42.671c5.875 0 10.656 4.781 10.656 10.671s-4.781 10.664-10.656 10.664h-29.046c5.016 16.555 16.921 44.851 41.343 54.015 5.516 2.062 8.312 8.211 6.25 13.727a10.692 10.692 0 01-10.002 6.929zm110.873 0a10.68 10.68 0 01-9.984-6.929c-2.062-5.516.734-11.664 6.25-13.727 24.546-9.211 36.404-37.476 41.373-54.015h-29.061c-5.906 0-10.672-4.773-10.672-10.664s4.766-10.671 10.672-10.671h42.654c3.141 0 6.109 1.383 8.141 3.765a10.747 10.747 0 012.391 8.641c-.438 2.656-11.297 65.397-58.014 82.912-1.234.469-2.5.688-3.75.688z" fill="#f6bb42"/><path d="M319.993 21.34H191.995c-5.906 0-10.672 4.773-10.672 10.664v63.999c0 41.171 33.483 74.663 74.67 74.663 41.155 0 74.654-33.492 74.654-74.663V32.004c.001-5.89-4.78-10.664-10.654-10.664z" fill="#ffce54"/><path d="M255.994 117.338c-5.906 0-10.672-4.781-10.672-10.672V74.667c0-5.891 4.766-10.664 10.672-10.664 5.874 0 10.655 4.773 10.655 10.664v31.999c0 5.891-4.781 10.672-10.655 10.672z" fill="#e8aa3d"/></svg>