<svg width="24" height="24" fill="none" xmlns="http://www.w3.org/2000/svg"><path opacity=".15" d="M12 11a4 4 0 100-8 4 4 0 000 8z" fill="#001A72"/><path d="M19.25 21a.75.75 0 001.5 0h-1.5zm-16 0a.75.75 0 001.5 0h-1.5zm18.5-8a.75.75 0 00-1.5 0h1.5zm-1.5.01a.75.75 0 001.5 0h-1.5zm0-2.01a.75.75 0 001.5 0h-1.5zm-1.977-3.625a.75.75 0 001.454.367l-1.454-.367zM8 15.75h8v-1.5H8v1.5zM19.25 19v2h1.5v-2h-1.5zm-14.5 2v-2h-1.5v2h1.5zM16 15.75A3.25 3.25 0 0119.25 19h1.5A4.75 4.75 0 0016 14.25v1.5zm-8-1.5A4.75 4.75 0 003.25 19h1.5A3.25 3.25 0 018 15.75v-1.5zM15.25 7A3.25 3.25 0 0112 10.25v1.5A4.75 4.75 0 0016.75 7h-1.5zM12 10.25A3.25 3.25 0 018.75 7h-1.5A4.75 4.75 0 0012 11.75v-1.5zM8.75 7A3.25 3.25 0 0112 3.75v-1.5A4.75 4.75 0 007.25 7h1.5zM12 3.75A3.25 3.25 0 0115.25 7h1.5A4.75 4.75 0 0012 2.25v1.5zM20.25 13v.01h1.5V13h-1.5zm2-4.922c0 .323-.159.49-.692.88-.445.324-1.308.893-1.308 2.042h1.5c0-.28.137-.425.692-.831.467-.34 1.308-.92 1.308-2.091h-1.5zM21 6.75c.677 0 1.25.563 1.25 1.328h1.5c0-1.53-1.183-2.828-2.75-2.828v1.5zm-1.273.992A1.329 1.329 0 0121 6.75v-1.5c-1.295 0-2.419.9-2.727 2.125l1.454.367z" fill="#001A72"/></svg>