<svg xmlns="http://www.w3.org/2000/svg" viewBox="0 0 495 495"><path d="M461.288 99.116a69.123 69.123 0 006.611-29.559C467.899 31.203 436.696 0 398.342 0a69.037 69.037 0 00-28.563 6.138l-68.787 31.017v61.962h160.296z" fill="#ffcd00"/><path d="M194.009 37.154L125.221 6.137A69.033 69.033 0 0096.658 0C58.304 0 27.101 31.203 27.101 69.558a69.138 69.138 0 006.611 29.559h160.297V37.154z" fill="#ffda44"/><path fill="#eebf00" d="M194.009 20.886h106.982v78.23H194.009z"/><path fill="#ff5023" d="M49.071 238.232H247.5V495H49.071z"/><path fill="#ff3501" d="M247.5 238.232h198.429V495H247.5zM29.071 99.116H247.5v139.116H29.071z"/><path fill="#cd2a00" d="M247.5 99.116h218.429v139.116H247.5z"/></svg>