<svg xmlns="http://www.w3.org/2000/svg" viewBox="0 0 499.698 499.698"><path d="M217.279 359.294l-91.373-91.373 28.285-28.284 63.088 63.088 32.57-32.57V0l-14.402 14.948C188.739 63.425 128.045 90.124 64.544 90.126c-12.13 0-24.388-1.009-36.433-3L3.902 83.124l.963 24.519c2.861 72.846 16.971 138.61 41.938 195.463 20.175 45.941 47.421 86.163 80.982 119.547 57.637 57.333 113.968 74.626 116.337 75.334l5.727 1.711V326.724l-32.57 32.57z" fill="#ff5023"/><path d="M471.588 87.126a224.1 224.1 0 01-36.434 3c-63.496.002-124.19-26.697-170.902-75.178L249.849 0v270.156l95.659-95.657 28.283 28.284-123.942 123.941v172.975l5.727-1.711c2.369-.708 58.7-18.001 116.337-75.334 33.562-33.385 60.808-73.606 80.982-119.547 24.968-56.853 39.077-122.616 41.938-195.463l.963-24.519-24.208 4.001z" fill="#ff3501"/><path fill="#ffda44" d="M154.191 239.637l-28.285 28.284 91.373 91.373 32.57-32.57 123.943-123.942-28.284-28.284-95.659 95.658-32.57 32.569z"/></svg>