<svg xmlns="http://www.w3.org/2000/svg" viewBox="0 0 501.551 501.551"><path d="M20.898 147.331v333.322c0 11.494 9.404 20.898 20.898 20.898h417.959c11.494 0 20.898-9.404 20.898-20.898V147.331H20.898z" fill="#f2f2f2"/><path d="M253.91 239.282v49.11h-6.27v-49.11h6.27zm0 192.261v49.11h-5.224v-49.11h5.224zm84.637-154.645l-34.482 34.482c-1.045-1.045-2.09-3.135-4.18-4.18l35.527-34.482 3.135 4.18zM202.71 412.735l-35.527 34.482-4.18-3.135 34.482-34.482c2.091 1.045 3.135 2.09 5.225 3.135zm169.274-55.38v5.224h-49.11v-5.225h49.11zm-192.262 3.135v2.09h-49.11v-5.224h49.11v3.134zm158.825 83.592l-4.18 4.18-35.527-35.527c1.045-1.045 3.135-2.09 4.18-4.18l35.527 35.527zM202.71 308.245c-1.045 1.045-3.135 2.09-4.18 4.18l-35.527-35.527 4.18-4.18 35.527 35.527zm22.988-14.629c-2.09 0-3.135 1.045-5.224 2.09l-11.494-28.212 5.224-2.09 11.494 28.212zm66.873 159.87l-5.224 2.09-11.494-28.212c2.09-1.045 3.135-1.045 5.224-2.09l11.494 28.212zM185.992 331.233c-1.045 1.045-1.045 3.135-2.09 5.224l-28.212-11.494 2.09-5.224 28.212 11.494zm159.869 65.828l-2.09 5.224-28.212-11.494c1.045-1.045 1.045-3.135 2.09-5.224l28.212 11.494zm-159.869-7.314l-28.212 11.494-2.09-5.224 28.212-11.494c0 2.089 1.045 4.179 2.09 5.224zm159.869-65.829l-28.212 11.494c0-2.09-1.045-3.135-2.09-5.224l28.212-11.494 2.09 5.224zM225.698 427.363l-11.494 28.212-5.224-2.09 11.494-28.212c2.089 1.045 4.179 1.045 5.224 2.09zm66.873-159.869l-11.494 28.212c-1.045-1.045-3.135-1.045-5.224-2.09l11.494-28.212 5.224 2.09z" fill="#fff"/><path d="M459.755 0H41.796C30.302 0 20.898 9.404 20.898 20.898v73.143h459.755V20.898C480.653 9.404 471.249 0 459.755 0z" fill="#ffd15c"/><path fill="#40596b" d="M343.771 343.771l25.078 88.817 22.988-21.943 21.943 21.943 19.853-19.853-21.943-21.943 21.943-21.943z"/><circle cx="193.306" cy="47.02" r="15.673" fill="#ff7058"/><circle cx="132.702" cy="47.02" r="15.673" fill="#f2f2f2"/><circle cx="72.098" cy="47.02" r="15.673" fill="#40596b"/><path d="M480.653 157.78v61.649c-8.359 6.269-18.808 9.404-29.257 9.404-28.212 0-50.155-21.943-50.155-50.155 0 27.167-22.988 50.155-50.155 50.155s-50.155-21.943-50.155-50.155c0 27.167-22.988 50.155-50.155 50.155s-50.155-21.943-50.155-50.155c0 27.167-21.943 50.155-50.155 50.155s-50.155-21.943-50.155-50.155c0 27.167-22.988 50.155-50.155 50.155-11.494 0-20.898-3.135-29.257-9.404V157.78h459.754z" fill="#e4eaef"/><path fill="#ff7058" d="M100.31 147.331H0l20.898-53.29h91.951z"/><path fill="#cdd6e0" d="M200.62 147.331H100.31l12.539-53.29H204.8z"/><path fill="#ff7058" d="M300.931 147.331H200.62l4.18-53.29h91.951z"/><path fill="#cdd6e0" d="M401.241 147.331h-100.31l-4.18-53.29h91.951z"/><path fill="#ff7058" d="M501.551 147.331h-100.31l-12.539-53.29h91.951z"/><path d="M100.31 169.273c0 28.212 21.943 50.155 50.155 50.155s50.155-21.943 50.155-50.155V147.33H100.31v21.943zm200.621-21.942v21.943c0 28.212 21.943 50.155 50.155 50.155s50.155-21.943 50.155-50.155v-21.943h-100.31z" fill="#acb3ba"/><path d="M0 169.273c0 28.212 21.943 50.155 50.155 50.155s50.155-21.943 50.155-50.155V147.33H0v21.943zm200.62 0c0 28.212 21.943 50.155 50.155 50.155s50.155-21.943 50.155-50.155V147.33H200.62v21.943zm200.621-21.942v21.943c0 28.212 21.943 50.155 50.155 50.155s50.155-21.943 50.155-50.155v-21.943h-100.31z" fill="#f1543f"/><circle cx="250.776" cy="360.49" r="78.367" fill="#ff7058"/><g fill="#fff"><path d="M238.237 383.478l-3.135-9.404h60.604v-45.975h-72.098l-4.18-16.718H198.53v7.314h15.673l18.808 72.098h64.784v-7.314h-59.558zm50.155-47.021v30.302h-54.335l-8.359-30.302h62.694z"/><circle cx="248.686" cy="406.465" r="9.404"/><circle cx="283.167" cy="406.465" r="9.404"/></g></svg>