<svg xmlns="http://www.w3.org/2000/svg" viewBox="0 0 495 495"><path fill="#ff9478" d="M89.916 0h157.585v75.221H89.916z"/><path fill="#ff7956" d="M247.5 0h157.584v75.221H247.5z"/><path d="M247.5 298.793v-60.559c-43.495 0-78.754-35.335-78.754-78.841 0 43.505-35.259 78.841-78.765 78.841-15.296 0-29.569-4.363-41.645-11.923a78.402 78.402 0 01-3.903-2.61V495h118.398V298.793H247.5z" fill="#e0e0e2"/><path d="M405.019 238.234c-43.506 0-78.765-35.335-78.765-78.841 0 43.505-35.259 78.841-78.754 78.841v60.559h84.669V495h118.398V223.701a78.402 78.402 0 01-3.903 2.61c-12.076 7.56-26.349 11.923-41.645 11.923z" fill="#c6c5ca"/><path fill="#ff5023" d="M162.831 298.793h169.338V495H162.831z"/><path d="M168.746 159.393c0 43.505 35.259 78.841 78.754 78.841 43.495 0 78.754-35.335 78.754-78.841H168.746zm-78.765 78.841c43.506 0 78.765-35.335 78.765-78.841H11.227c0 26.527 13.115 50.012 33.206 64.308a78.402 78.402 0 003.903 2.61c12.076 7.56 26.349 11.923 41.645 11.923zm393.792-78.841H326.254c0 43.505 35.259 78.841 78.765 78.841 15.296 0 29.57-4.363 41.645-11.923a78.402 78.402 0 003.903-2.61c20.092-14.296 33.206-37.781 33.206-64.308z" fill="#cd2a00"/><path fill="#ff5023" d="M247.5 159.393V75.221H48.336l-37.109 84.172z"/><path fill="#ff3501" d="M247.5 75.221v84.172h236.273l-37.109-84.172z"/></svg>