<svg xmlns="http://www.w3.org/2000/svg" viewBox="0 0 496 496"><path fill="#ce351b" d="M200 0h64v64h-64z"/><path fill="#a50c00" d="M200 0h64v56"/><path fill="#ce351b" d="M272 0h64v64h-64z"/><path fill="#a50c00" d="M272 0h64v64"/><path fill="#ce351b" d="M344 0h64v64h-64z"/><path fill="#a50c00" d="M344 0h64v64"/><path fill="#049cbf" d="M344 128h64v64h-64z"/><path fill="#047ba0" d="M408 128v64h-64"/><path fill="#049cbf" d="M344 200h64v64h-64z"/><path fill="#047ba0" d="M408 200v64h-64"/><path fill="#049cbf" d="M272 200h64v64h-64z"/><path fill="#047ba0" d="M336 200v64h-64"/><path fill="#049cbf" d="M344 272h64v64h-64z"/><path fill="#047ba0" d="M408 272v64h-64"/><path fill="#34b515" d="M88 0h64v64H88z"/><path fill="#129b0b" d="M152 0v64H88"/><path fill="#34b515" d="M88 72h64v64H88z"/><path fill="#129b0b" d="M152 72v64H88"/><path fill="#34b515" d="M88 144h64v64H88z"/><path fill="#129b0b" d="M152 144v64H88"/><path fill="#34b515" d="M160 144h64v64h-64z"/><path fill="#129b0b" d="M224 144v64h-64"/><path fill="#d66203" d="M160 336h64v64h-64z"/><path fill="#ef880c" d="M160 400v-64h64"/><path fill="#d66203" d="M160 264h64v64h-64z"/><path fill="#ef880c" d="M160 328v-64h64"/><path fill="#d66203" d="M88 264h64v64H88z"/><path fill="#ef880c" d="M88 328v-64h64"/><path fill="#835ea5" d="M272 432h64v64h-64z"/><path fill="#683c96" d="M336 432v64h-64"/><path fill="#835ea5" d="M344 432h64v64h-64z"/><path fill="#683c96" d="M408 432v64h-64"/><path fill="#835ea5" d="M272 360h64v64h-64z"/><path fill="#683c96" d="M336 360v64h-64"/><path fill="#835ea5" d="M344 360h64v64h-64z"/><path fill="#683c96" d="M408 360v64h-64"/><path fill="#353a3a" d="M256 104h64v64h-64z"/><path fill="#1e2323" d="M320 104v64h-64"/></svg>