<svg xmlns="http://www.w3.org/2000/svg" viewBox="0 0 490 490"><path fill="#fdc147" d="M480 95L245 235 10 95z"/><path fill="#ffd248" d="M480 95v300H10V95l235 140z"/><path d="M480 85H10C4.478 85 0 89.478 0 95v300c0 5.522 4.478 10 10 10h470c5.522 0 10-4.478 10-10V95c0-5.522-4.478-10-10-10zM245 223.36L46.324 105h397.352L245 223.36zM20 385V112.597l150.807 89.842-107.014 84.72 12.414 15.682 112.986-89.447 50.688 30.197a10.002 10.002 0 0010.237 0l50.688-30.197 112.986 89.447 12.414-15.682-107.013-84.719L470 112.597V385H20z" fill="#231f20"/></svg>