<svg xmlns="http://www.w3.org/2000/svg" viewBox="0 0 496.2 496.2"><path d="M140.8 342.1c-8 0-15.2-5.6-16.8-13.6l-38.4-180c-1.6-9.6 4-18.4 12.8-20 9.6-1.6 18.4 4 20 12.8l38.4 180c1.6 9.6-4 18.4-12.8 20-.8.8-1.6.8-3.2.8zm132.8 0h-3.2c-9.6-1.6-15.2-11.2-12.8-20l38.4-180c1.6-9.6 11.2-15.2 20-12.8 9.6 1.6 15.2 11.2 12.8 20l-38.4 179.2c-1.6 8-8.8 13.6-16.8 13.6zm-66.4-3.2c-9.6 0-16.8-8-16.8-16.8v-180c0-9.6 8-16.8 16.8-16.8s16.8 8 16.8 16.8v180c.8 8.8-7.2 16.8-16.8 16.8z"/><path d="M414.4 146.9c1.6-4.8.8-11.2-2.4-15.2s-8-7.2-13.6-7.2H16.8c-5.6 0-10.4 2.4-13.6 7.2-3.2 4.8-4 10.4-2.4 15.2L40 272.5c0 2.4.8 4.8 2.4 7.2l16.8 54.4c2.4 7.2 8.8 12 16 12h264c7.2 0 14.4-4.8 16-12l16.8-54.4 2.4-7.2 40-125.6zM60.8 223.7h293.6l-9.6 30.4H70.4l-9.6-30.4zm313.6-64.8l-9.6 30.4H49.6L40 158.9h334.4zM88 312.5l-7.2-24h253.6l-7.2 24H88z" fill="#18456d"/><path d="M397.6 132.5H16.8c-5.6 0-10.4 2.4-13.6 7.2-1.6 1.6-2.4 4-2.4 6.4v.8L40 272.5c0 2.4.8 4.8 2.4 7.2l16.8 54.4c2.4 7.2 8.8 12 16 12h264c7.2 0 14.4-4.8 16-12l16.8-54.4 2.4-7.2 39.2-125.6v-.8c-.8-2.4-1.6-4-2.4-6.4-2.4-4.8-8-7.2-13.6-7.2zm-63.2 164l-7.2 24H88l-7.2-24h2.4l-2.4-8h253.6l-2.4 8h2.4zm20-64.8l-9.6 30.4H70.4l-9.6-30.4h2.4l-2.4-8h293.6l-2.4 8h2.4zm20-64.8l-9.6 30.4H49.6L40 166.9h2.4l-2.4-8h334.4l-2.4 8h2.4zm-25.6 240.8H66.4c-9.6 0-16.8-8-16.8-16.8 0-9.6 8-16.8 16.8-16.8h282.4c9.6 0 16.8 8 16.8 16.8 0 9.6-7.2 16.8-16.8 16.8z" fill="#0b3249"/><path d="M80.8 407.7h112c0-14.4-16-26.4-33.6-34.4h-60c-12 8-18.4 20.8-18.4 34.4z"/><path d="M166.4 407.7c0 24-19.2 45.6-43.2 45.6S80 430.9 80 407.7c0-24 19.2-43.2 43.2-43.2 24 .8 43.2 20 43.2 43.2z" fill="#0e3451"/><path d="M166.4 407.7c0 24-19.2 43.2-43.2 43.2S80 431.7 80 407.7s19.2-46.4 43.2-46.4c24 .8 43.2 23.2 43.2 46.4z" fill="#2689c6"/><circle cx="123.2" cy="407.7" r="43.2" fill="#1b5a89"/><path d="M92.8 377.3c16.8-16.8 44-16.8 60.8 0s16.8 44 0 60.8" fill="#18456d"/><path d="M123.2 433.3c-14.4 0-25.6-11.2-25.6-25.6s11.2-25.6 25.6-25.6 25.6 11.2 25.6 25.6c0 14.4-11.2 25.6-25.6 25.6z" fill="#0b3249"/><path d="M141.6 390.1c9.6 9.6 9.6 26.4 0 36s-26.4 9.6-36 0m132.8-18.4h112c0-14.4-16-26.4-33.6-34.4H256c-10.4 8-17.6 20.8-17.6 34.4z"/><path d="M324 407.7c0 24-19.2 45.6-43.2 45.6s-43.2-22.4-43.2-45.6c0-24 19.2-43.2 43.2-43.2s43.2 20 43.2 43.2z" fill="#0e3451"/><path d="M324 407.7c0 24-19.2 43.2-43.2 43.2s-43.2-19.2-43.2-43.2 19.2-46.4 43.2-46.4 43.2 23.2 43.2 46.4z" fill="#2689c6"/><circle cx="281.6" cy="407.7" r="43.2" fill="#1b5a89"/><path d="M251.2 377.3c16.8-16.8 44-16.8 60.8 0s16.8 44 0 60.8" fill="#18456d"/><path d="M281.6 433.3c-14.4 0-25.6-11.2-25.6-25.6s11.2-25.6 25.6-25.6 25.6 11.2 25.6 25.6c-.8 14.4-12 25.6-25.6 25.6z" fill="#0b3249"/><path d="M299.2 390.1c9.6 9.6 9.6 26.4 0 36s-26.4 9.6-36 0"/><path d="M496 86.1c0 9.6-8 16.8-16.8 16.8h-72c-9.6 0-16.8-8-16.8-16.8v-.8c0-9.6 8-16.8 16.8-16.8h72c9.6 0 16.8 8 16.8 16.8v.8z" fill="#1b5a89"/><path d="M407.2 67.7c-7.2 0-13.6 4.8-16 12 2.4 7.2 8.8 12 16 12h72c7.2 0 13.6-4.8 16-12-2.4-7.2-8.8-12-16-12h-72z" fill="#18456d"/><g fill="#0093f7"><circle cx="364.8" cy="142.1" r="86.4" opacity=".5"/><path d="M364.8 42.9c-54.4 0-99.2 44.8-99.2 99.2s44 99.2 98.4 99.2h.8c54.4 0 99.2-44.8 99.2-99.2 0-54.4-44-99.2-99.2-99.2zm0 24c41.6 0 75.2 33.6 75.2 75.2s-33.6 75.2-75.2 75.2-75.2-33.6-75.2-75.2 34.4-75.2 75.2-75.2z"/></g><path d="M492 250.9l-33.6-33.6c-4.8-4.8-12.8-4.8-18.4 0-4.8 4.8-4.8 13.6 0 18.4l33.6 33.6c4.8 4.8 13.6 4.8 18.4 0 5.6-4.8 5.6-13.6 0-18.4z" fill="#0078db"/></svg>