<svg xmlns="http://www.w3.org/2000/svg" viewBox="0 0 486.944 486.944"><path d="M2.77 60l29.685 181.689c4.43 27.021 29.348 48.187 56.729 48.187h123.954V60H2.77z" fill="#ff9478"/><path d="M214.549 187.337l24.209 4.002a103.46 103.46 0 0016.825 1.386c29.428-.001 57.617-12.438 79.376-35.021l14.402-14.948 14.402 14.948c7.064 7.331 14.808 13.586 23.049 18.7L405.893 60H213.137v229.875h15.348c-6.959-22.059-11.789-47.893-12.973-78.02l-.963-24.518z" fill="#ff7956"/><path d="M37.295 433.41c0 29.519 24.016 53.534 53.535 53.534V379.875c-29.519 0-53.535 24.016-53.535 53.535zm306.34-14.936c-.908-.272-16.328-5.012-36.111-18.407-7.311 9.155-11.697 20.743-11.697 33.343 0 29.519 24.015 53.534 53.534 53.534v-66.76l-5.726-1.71z" fill="#2488ff"/><path d="M90.83 379.875v107.069c29.519 0 53.534-24.015 53.534-53.534s-24.015-53.535-53.534-53.535zm258.531 40.31v66.76c29.519 0 53.535-24.015 53.535-53.534 0-12.6-4.386-24.188-11.697-33.343-19.783 13.395-35.202 18.135-36.111 18.406l-5.727 1.711z" fill="#005ece"/><path d="M57.295 319.875v40h207.378c-8.545-10.943-17.016-24.183-24.477-40H57.295zM449.706 40H481.6V0h-65.871l-28.916 176.404c11.851 7.354 24.733 12.336 38.123 14.711L449.706 40z" fill="#2488ff"/><path d="M349.361 420.185V142.756l-14.402 14.948c-21.759 22.583-49.948 35.02-79.376 35.021-5.6 0-11.261-.466-16.825-1.386l-24.209-4.002.963 24.519c1.183 30.127 6.013 55.961 12.973 78.02 3.442 10.909 7.411 20.879 11.713 30 7.46 15.817 15.931 29.057 24.477 40a192.561 192.561 0 0015.948 18.013 186.196 186.196 0 0026.901 22.179c19.783 13.395 35.203 18.135 36.111 18.407l5.726 1.71z" fill="#ff5023"/><path d="M459.965 191.339a103.55 103.55 0 01-16.827 1.386c-6.137 0-12.22-.548-18.202-1.61-13.39-2.375-26.272-7.357-38.123-14.711-8.241-5.114-15.985-11.369-23.049-18.7l-14.402-14.948v277.429l5.727-1.711c.908-.272 16.328-5.012 36.111-18.406a186.196 186.196 0 0026.901-22.179c27.815-27.668 61.69-78.933 65.111-166.032l.964-24.519-24.211 4.001z" fill="#ff3501"/></svg>