<svg xmlns="http://www.w3.org/2000/svg" viewBox="0 0 486.944 486.944"><path d="M2.962 60l29.685 181.689c4.43 27.021 29.348 48.187 56.729 48.187H213.33V60H2.962z" fill="#ff9478"/><path d="M349.551 151.016c14.142 0 27.776 2.201 40.588 6.267L406.085 60H213.329v229.875h1.875a135.73 135.73 0 01-.081-4.429c0-74.124 60.304-134.429 134.428-134.43z" fill="#ff7956"/><path d="M37.488 433.41c0 29.519 24.016 53.534 53.535 53.534V379.875c-29.52 0-53.535 24.016-53.535 53.535zm312.065-13.535c-17.099 0-33.458-3.215-48.515-9.062a53.2 53.2 0 00-5.019 22.597c0 29.519 24.015 53.534 53.534 53.534v-67.069z" fill="#2488ff"/><path d="M91.022 379.875v107.069c29.519 0 53.534-24.015 53.534-53.534s-24.015-53.535-53.534-53.535zm258.531 40v67.069c29.519 0 53.535-24.015 53.535-53.534a53.2 53.2 0 00-5.019-22.597c-15.058 5.847-31.418 9.062-48.516 9.062z" fill="#005ece"/><path d="M449.898 40h31.894V0H415.92l-25.781 157.283a134.062 134.062 0 0137.458 18.769L449.898 40zM57.488 319.875v40h180.178a133.834 133.834 0 01-18.066-40H57.488z" fill="#2488ff"/><path d="M441.844 305.446h-34.693c-1.204 21.981-4.427 43.277-9.821 61.42 22.369-13.176 38.859-35.302 44.514-61.42zm-184.582 0c5.655 26.118 22.145 48.244 44.514 61.42-5.395-18.144-8.618-39.44-9.822-61.42h-34.692zm0-40h34.693c1.204-21.981 4.427-43.277 9.822-61.421-22.37 13.176-38.86 35.302-44.515 61.421zm92.291-72.038c-5.992 8.59-15.104 33.166-17.53 72.038h35.059c-2.425-38.872-11.537-63.448-17.529-72.038zm17.529 112.038h-35.059c2.426 38.872 11.538 63.448 17.53 72.037 5.992-8.589 15.104-33.165 17.529-72.037zm74.762-40c-5.655-26.119-22.145-48.245-44.514-61.421 5.395 18.143 8.618 39.44 9.821 61.421h34.693z" fill="#005ece"/><path d="M483.983 285.446c0-45.048-22.275-84.988-56.386-109.394a134.09 134.09 0 00-37.458-18.769 133.953 133.953 0 00-40.586-6.267c74.125 0 134.43 60.305 134.43 134.43 0 74.124-60.305 134.429-134.43 134.429 17.099 0 33.458-3.215 48.516-9.062 50.218-19.501 85.914-68.341 85.914-125.367z" fill="#bddbff"/><path d="M349.501 419.875v-42.468l.052.077c-5.992-8.59-15.104-33.166-17.529-72.038h17.478v-40h-17.478c2.426-38.872 11.538-63.448 17.53-72.038l-.052.077v-42.468l.05-.001c-74.124.001-134.428 60.305-134.428 134.43 0 1.483.033 2.958.081 4.429a133.905 133.905 0 004.396 30 133.834 133.834 0 0018.066 40c15.275 22.887 37.376 40.843 63.372 50.938 15.057 5.847 31.416 9.062 48.513 9.062h-.051zm-47.725-53.008c-22.369-13.176-38.859-35.302-44.514-61.42h34.693c1.204 21.98 4.427 43.276 9.821 61.42zm-44.514-101.421c5.655-26.119 22.145-48.245 44.514-61.421-5.395 18.144-8.618 39.44-9.822 61.421h-34.692zm140.068 101.42c5.395-18.143 8.618-39.44 9.821-61.42-1.204 21.981-4.427 43.277-9.821 61.42zm9.821-101.42c-1.204-21.981-4.427-43.277-9.821-61.421 5.394 18.144 8.617 39.44 9.821 61.421z" fill="#bddbff"/><path d="M349.551 151.016l-.05.001v42.468l.052-.077c5.992 8.59 15.104 33.166 17.53 72.038h-17.581v40h17.581c-2.426 38.872-11.538 63.448-17.529 72.037l-.052-.077v42.468l.05.001c74.126 0 134.431-60.305 134.431-134.429 0-74.125-60.305-134.43-134.432-134.43zm57.6 154.43h34.693c-5.655 26.118-22.145 48.244-44.514 61.42 5.394-18.143 8.617-39.439 9.821-61.42zm-9.821-101.421c22.369 13.176 38.859 35.302 44.514 61.421h-34.693c-1.204-21.981-4.427-43.277-9.821-61.421z" fill="#9bc9ff"/></svg>