<svg xmlns="http://www.w3.org/2000/svg" viewBox="0 0 380 380"><path d="M129.48 311.289h121.026c2.319-18.419 11.726-26.242 23.471-37.644 16.82-16.329 37.753-36.65 37.753-87.096 0-32.261-12.805-61.618-36.056-82.665C253.249 83.585 222.823 72.406 190 72.406c-32.823 0-63.249 11.179-85.673 31.478-23.251 21.047-36.056 50.404-36.056 82.665 0 50.521 20.977 70.961 37.833 87.385 11.659 11.36 21.017 19.273 23.376 37.355z" fill="#ffda44"/><path fill="#ffeb99" d="M175 0h30v40h-30z"/><path fill="#ffe477" d="M277.529 21.684l24.963 16.641-20 30.002-24.963-16.64zm80.343 73.482l4.242 29.7-35.001 5-4.242-29.7z"/><path fill="#ffeb99" d="M22.122 95.145l34.998 5-4.242 29.697-34.998-5zm80.358-73.462l20 30.003-24.964 16.64-20-30.002z"/><path d="M275.673 103.884C253.249 83.585 222.823 72.406 190 72.406v238.883h60.506c2.319-18.419 11.726-26.242 23.47-37.644 16.82-16.329 37.753-36.65 37.753-87.096.001-32.261-12.804-61.618-36.056-82.665z" fill="#ffcd00"/><path fill="#00d7df" d="M148.212 345.645h83.576V380h-83.576z"/><path fill="#00d7df" d="M133.677 319.878h112.646v34.355H133.677z"/><path fill="#00d7df" d="M119.142 294.111h141.716v34.355H119.142z"/><path fill="#00969b" d="M190 294.111V380h41.788v-25.767h14.535v-25.766h14.535v-34.356z"/><path fill="#ffe477" d="M190 0h15v40h-15z"/></svg>