<svg xmlns="http://www.w3.org/2000/svg" viewBox="0 0 512 512"><path d="M256 8.17v198.809h41.927l5.337-21.47c28.502-16.388 47.694-47.142 47.694-82.38C350.96 50.685 308.445 8.17 256 8.17z" fill="#f3a933"/><path d="M256 8.17c-52.464.02-94.96 42.527-94.96 94.959 0 35.236 19.192 65.991 47.694 82.38l5.338 21.47h74.236l4.112-21.47c21.963-16.388 36.752-47.142 36.752-82.38C329.171 50.685 296.412 8.17 256 8.17z" fill="#ffbe35"/><path fill="#2f5e88" d="M214.07 206.979h83.856v82.356H214.07z"/><path fill="#ff754f" d="M403.14 377.268V503.83H256l-21.787-148.35z"/><path fill="#ff9269" d="M256 355.48v148.35H108.86V377.268z"/><path fill="#ff4719" d="M403.14 344.587v32.681H256l-30.099-32.681L256 272.34z"/><path fill="#ff754f" d="M256 272.34v104.928H108.86v-32.681z"/><path fill="#ff9269" d="M403.14 272.34H256l30.099 72.247h147.14z"/><path fill="#ffb082" d="M108.86 272.34l-30.099 72.247h147.14L256 272.34z"/><path d="M403.137 369.092a8.17 8.17 0 00-8.17 8.17V495.66H288.681c-4.513 0-8.17 3.657-8.17 8.17s3.657 8.17 8.17 8.17h114.456a8.169 8.169 0 008.17-8.17V377.262a8.17 8.17 0 00-8.17-8.17z"/><path d="M440.78 341.44l-30.101-72.241a8.169 8.169 0 00-7.542-5.027H108.863a8.17 8.17 0 00-7.542 5.027L71.22 341.44a8.169 8.169 0 007.542 11.313h21.931V503.83a8.169 8.169 0 008.17 8.17H256a8.169 8.169 0 008.17-8.17V313.191l14.389 34.534a8.168 8.168 0 007.542 5.027h147.137a8.17 8.17 0 007.542-11.312zm-326.47-60.929h129.435l-23.293 55.901H91.017l23.293-55.901zm2.723 215.149V352.752H225.9a8.172 8.172 0 007.542-5.027l14.388-34.533V495.66H117.033zm174.515-159.249l-23.293-55.901H397.69l23.293 55.901H291.548zm-89.922-145.637l4.518 18.176a8.169 8.169 0 007.928 6.198h83.856a8.17 8.17 0 007.928-6.198l4.518-18.176c30.162-18.754 48.755-52.014 48.755-87.645C359.13 46.264 312.866 0 256 0S152.87 46.264 152.87 103.13c0 35.631 18.593 68.89 48.756 87.644zM256 16.34c47.856 0 86.789 38.934 86.789 86.789 0 30.981-16.705 59.834-43.596 75.296a8.169 8.169 0 00-3.856 5.111l-3.796 15.272h-71.079l-3.796-15.272a8.166 8.166 0 00-3.856-5.111c-26.892-15.461-43.597-44.314-43.597-75.296C169.211 55.274 208.144 16.34 256 16.34zm41.927 215.149h-83.856c-4.513 0-8.17 3.657-8.17 8.17s3.657 8.17 8.17 8.17h83.856c4.513 0 8.17-3.657 8.17-8.17s-3.656-8.17-8.17-8.17z"/><path d="M231.731 176.27a8.173 8.173 0 007.922 6.201 8.12 8.12 0 001.978-.244 8.17 8.17 0 005.958-9.9l-7.227-29.075h31.278l-7.227 29.075a8.17 8.17 0 005.958 9.9 8.22 8.22 0 001.978.244 8.172 8.172 0 007.922-6.201l9.748-39.217c.011-.042.015-.086.025-.129a9.31 9.31 0 00.151-.846 10.136 10.136 0 00.06-.858c.001-.047.007-.092.007-.138 0-.064-.008-.126-.01-.191a8.225 8.225 0 00-.025-.497c-.01-.113-.023-.225-.036-.338a7.313 7.313 0 00-.148-.824 6.873 6.873 0 00-.097-.375 7.141 7.141 0 00-.247-.734 8.353 8.353 0 00-.18-.426c-.045-.098-.092-.194-.139-.29a8.768 8.768 0 00-.393-.693 7.83 7.83 0 00-.713-.963 7.91 7.91 0 00-.529-.558 9.125 9.125 0 00-.59-.514 7.762 7.762 0 00-.651-.467 9.065 9.065 0 00-.712-.409 7.798 7.798 0 00-.764-.341c-.1-.038-.199-.076-.302-.11a7.996 7.996 0 00-.492-.149c-.059-.016-.114-.038-.173-.052-.044-.011-.087-.015-.131-.026a10.056 10.056 0 00-.857-.152 10.219 10.219 0 00-.868-.06c-.039-.001-.077-.005-.115-.005h-52.176a8.17 8.17 0 00-7.928 10.142l9.745 39.22z"/></svg>