<svg xmlns="http://www.w3.org/2000/svg" viewBox="0 0 512 512"><path d="M389.565 311.652h-66.783c-9.217 0-16.696 7.479-16.696 16.696v166.957c0 9.217 7.479 16.696 16.696 16.696h66.783c9.217 0 16.696-7.479 16.696-16.696V328.348c0-9.217-7.479-16.696-16.696-16.696z" fill="#c9d0d7"/><path d="M389.565 311.652h-33.391V512h33.391c9.217 0 16.696-7.479 16.696-16.696V328.348c0-9.217-7.479-16.696-16.696-16.696z" fill="#b8c2c9"/><path d="M450.783 345.044h-267.13V66.783h239.304c46.103 0 83.478 37.375 83.478 83.478v139.13c0 30.736-24.917 55.653-55.652 55.653z" fill="#ff6243"/><path d="M230.957 345.044H105.739V150.261c0-46.103 37.375-83.478 83.478-83.478 46.103 0 83.478 37.375 83.478 83.478v153.043c.001 23.053-18.686 41.74-41.738 41.74z" fill="#6e6057"/><path d="M256 166.957H55.652c-9.217 0-16.696 7.479-16.696 16.696v144.696c0 9.217 7.479 16.696 16.696 16.696H256c9.217 0 16.696-7.479 16.696-16.696V183.653c0-9.218-7.479-16.696-16.696-16.696z" fill="#c5dcfd"/><path d="M256 311.652H22.261c-9.217 0-16.696 7.479-16.696 16.696 0 9.217 7.479 16.696 16.696 16.696H256c9.217 0 16.696-7.479 16.696-16.696v-16.696H256z" fill="#ff3501"/><path d="M256 166.957H55.652c-9.217 0-16.696 7.479-16.696 16.696v3.852l106.62 87.235a16.647 16.647 0 0010.25 3.522c3.62 0 7.239-1.174 10.25-3.522 78.92-64.571 62.509-51.142 106.62-87.235v-3.852c0-9.218-7.479-16.696-16.696-16.696z" fill="#eceff0"/><path d="M422.957 66.783h-66.783v278.261h94.609c30.736 0 55.652-24.917 55.652-55.652v-139.13c0-46.106-37.374-83.479-83.478-83.479z" fill="#ff3501"/><path d="M322.783 133.565c-3.054 0-6.098-.837-8.783-2.489a16.728 16.728 0 01-7.913-14.207V16.696c0-5.782 3-11.163 7.913-14.207a16.731 16.731 0 0116.25-.728l100.174 50.087a16.7 16.7 0 010 29.87L330.25 131.804a16.73 16.73 0 01-7.467 1.761z" fill="#8ff0f0"/><path d="M430.424 51.848l-74.25-37.124v104.12l74.25-37.124a16.702 16.702 0 000-29.872z" fill="#87d7d7"/><path d="M322.783 233.739c-9.217 0-16.696-7.479-16.696-16.696V16.696C306.087 7.479 313.565 0 322.783 0c9.217 0 16.696 7.479 16.696 16.696v200.348c-.001 9.217-7.479 16.695-16.696 16.695z" fill="#eceff0"/></svg>