<svg width="900" height="600" xmlns="http://www.w3.org/2000/svg"><path fill="#edff49" d="M0 0h900v600H0z"/><path d="M900 513.8c-26.3-99.7-52.5-199.4-126.7-208-74.1-8.6-196.1 73.8-236.6 57.5-40.5-16.3.6-131.3-10.9-208.3S450.3 39 386.2 0H900z" fill="#d0ff32"/><path d="M900 342.5c-17.5-66.4-35-132.9-84.4-138.6-49.5-5.8-130.8 49.2-157.8 38.3-27-10.9.4-87.5-7.2-138.9C642.9 52 600.2 26 557.5 0H900z" fill="#80ff01"/><path d="M900 171.3c-8.8-33.3-17.5-66.5-42.2-69.4-24.7-2.8-65.4 24.6-78.9 19.2-13.5-5.4.2-43.8-3.6-69.4C771.4 26 750.1 13 728.7 0H900z" fill="#3f0"/><path d="M0 86.2c87.5-13.6 175-27.3 196.6 39.1 21.6 66.4-22.8 212.9 11.3 266.8 34.1 53.9 146.6 15.3 210.6 34.5 64.1 19.3 79.7 96.3 95.3 173.4H0z" fill="#d0ff32"/><path d="M0 257.5c58.3-9.1 116.7-18.2 131.1 26 14.4 44.3-15.2 142 7.5 177.9 22.7 36 97.7 10.2 140.4 23s53.1 64.2 63.5 115.6H0z" fill="#80ff01"/><path d="M0 428.7c29.2-4.5 58.3-9.1 65.5 13.1 7.2 22.1-7.6 70.9 3.8 88.9 11.4 18 48.9 5.1 70.2 11.5 21.4 6.4 26.6 32.1 31.8 57.8H0z" fill="#3f0"/></svg>