<svg id="visual" viewBox="0 0 900 600" width="900" height="600" xmlns="http://www.w3.org/2000/svg" xmlns:xlink="http://www.w3.org/1999/xlink" version="1.1"><rect x="0" y="0" width="900" height="600" fill="#edff49"></rect><defs><linearGradient id="grad1_0" x1="33.3%" y1="0%" x2="100%" y2="100%"><stop offset="20%" stop-color="#33ff00" stop-opacity="1"></stop><stop offset="80%" stop-color="#33ff00" stop-opacity="1"></stop></linearGradient></defs><defs><linearGradient id="grad1_1" x1="33.3%" y1="0%" x2="100%" y2="100%"><stop offset="20%" stop-color="#33ff00" stop-opacity="1"></stop><stop offset="80%" stop-color="#adff1b" stop-opacity="1"></stop></linearGradient></defs><defs><linearGradient id="grad1_2" x1="33.3%" y1="0%" x2="100%" y2="100%"><stop offset="20%" stop-color="#edff49" stop-opacity="1"></stop><stop offset="80%" stop-color="#adff1b" stop-opacity="1"></stop></linearGradient></defs><defs><linearGradient id="grad2_0" x1="0%" y1="0%" x2="66.7%" y2="100%"><stop offset="20%" stop-color="#33ff00" stop-opacity="1"></stop><stop offset="80%" stop-color="#33ff00" stop-opacity="1"></stop></linearGradient></defs><defs><linearGradient id="grad2_1" x1="0%" y1="0%" x2="66.7%" y2="100%"><stop offset="20%" stop-color="#adff1b" stop-opacity="1"></stop><stop offset="80%" stop-color="#33ff00" stop-opacity="1"></stop></linearGradient></defs><defs><linearGradient id="grad2_2" x1="0%" y1="0%" x2="66.7%" y2="100%"><stop offset="20%" stop-color="#adff1b" stop-opacity="1"></stop><stop offset="80%" stop-color="#edff49" stop-opacity="1"></stop></linearGradient></defs><g transform="translate(900, 0)"><path d="M0 513.8C-26.3 414.1 -52.5 314.4 -126.7 305.8C-200.8 297.2 -322.8 379.6 -363.3 363.3C-403.8 347 -362.7 232 -374.2 155C-385.7 78 -449.7 39 -513.8 0L0 0Z" fill="#d0ff32"></path><path d="M0 342.5C-17.5 276.1 -35 209.6 -84.4 203.9C-133.9 198.1 -215.2 253.1 -242.2 242.2C-269.2 231.3 -241.8 154.7 -249.4 103.3C-257.1 52 -299.8 26 -342.5 0L0 0Z" fill="#80ff01"></path><path d="M0 171.3C-8.8 138 -17.5 104.8 -42.2 101.9C-66.9 99.1 -107.6 126.5 -121.1 121.1C-134.6 115.7 -120.9 77.3 -124.7 51.7C-128.6 26 -149.9 13 -171.3 0L0 0Z" fill="#33ff00"></path></g><g transform="translate(0, 600)"><path d="M0 -513.8C87.5 -527.4 175 -541.1 196.6 -474.7C218.2 -408.3 173.8 -261.8 207.9 -207.9C242 -154 354.5 -192.6 418.5 -173.4C482.6 -154.1 498.2 -77.1 513.8 0L0 0Z" fill="#d0ff32"></path><path d="M0 -342.5C58.3 -351.6 116.7 -360.7 131.1 -316.5C145.5 -272.2 115.9 -174.5 138.6 -138.6C161.3 -102.6 236.3 -128.4 279 -115.6C321.7 -102.8 332.1 -51.4 342.5 0L0 0Z" fill="#80ff01"></path><path d="M0 -171.3C29.2 -175.8 58.3 -180.4 65.5 -158.2C72.7 -136.1 57.9 -87.3 69.3 -69.3C80.7 -51.3 118.2 -64.2 139.5 -57.8C160.9 -51.4 166.1 -25.7 171.3 0L0 0Z" fill="#33ff00"></path></g></svg>