<svg xmlns="http://www.w3.org/2000/svg" viewBox="0 0 66.231 66.231"><path d="M62.322 56.408h3v-10h-45.18l1.92 10h3.26" fill="#8b71b5"/><path d="M20.142 46.408h36.487l9.602-20h-50.99l4.901 20z" fill="#e56a77"/><path d="M61.142 57.062a5.761 5.761 0 11-11.523-.001 5.761 5.761 0 0111.523.001zm-23.093 0a5.761 5.761 0 11-11.523 0 5.761 5.761 0 0111.523 0z" fill="#edc951"/><path d="M58.38 23.408l-5.302-11.331-10.756 4.887V5.408h-12.47l-.943 6.784-4.587.777v10.439h3.701l-.102 1h14.401v-5.491l2.921 4.491H58.38z" fill="#53ecf4"/><path d="M51.629 45.408H15.142a1.499 1.499 0 01-1.457-1.143l-4.901-20a1.5 1.5 0 011.457-1.857h50.99a1.5 1.5 0 011.352 2.149l-9.601 20c-.25.52-.776.851-1.353.851zm-35.31-3h34.367l8.161-17H12.154l4.165 17z"/><path d="M60.822 55.408h-4.5a1.5 1.5 0 110-3h3v-7H16.957l1.344 7h2.021a1.5 1.5 0 110 3h-3.26a1.5 1.5 0 01-1.473-1.217l-1.92-10a1.502 1.502 0 011.473-1.783h45.68a1.5 1.5 0 011.5 1.5v10a1.5 1.5 0 01-1.5 1.5z"/><path d="M43.322 55.408h-10a1.5 1.5 0 110-3h10a1.5 1.5 0 110 3z"/><path d="M50.38 62.323c-4.004 0-7.261-3.257-7.261-7.261s3.257-7.261 7.261-7.261 7.262 3.257 7.262 7.261-3.258 7.261-7.262 7.261zm0-11.522a4.265 4.265 0 00-4.261 4.261 4.266 4.266 0 004.261 4.261 4.267 4.267 0 004.262-4.261 4.266 4.266 0 00-4.262-4.261zM27.288 62.323c-4.004 0-7.261-3.257-7.261-7.261s3.257-7.261 7.261-7.261 7.261 3.257 7.261 7.261-3.257 7.261-7.261 7.261zm0-11.522a4.266 4.266 0 00-4.261 4.261 4.266 4.266 0 004.261 4.261 4.266 4.266 0 004.261-4.261 4.265 4.265 0 00-4.261-4.261zm-10.227 3.801c-.676 0-1.29-.46-1.457-1.146L6.015 14.014c-.22-.224-.847-.631-1.528-.631-.834 0-1.487.69-1.487 1.571 0 .542.266 1.042.712 1.338a1.5 1.5 0 11-1.66 2.499A4.594 4.594 0 010 14.954c0-2.521 2.013-4.571 4.487-4.571 2.096 0 4.228 1.457 4.454 2.967l9.579 39.397a1.5 1.5 0 01-1.459 1.855zm36.32-29.58a1.5 1.5 0 01-1.373-.893l-4.421-9.996-8.498 3.913 2.485 4.784a1.5 1.5 0 11-2.662 1.383l-3.211-6.181a1.503 1.503 0 01.704-2.054l11.311-5.207a1.5 1.5 0 011.999.756l5.037 11.388a1.5 1.5 0 01-1.371 2.107zm-21.374-.614H19.822a1.5 1.5 0 01-1.5-1.5v-9.939c0-.728.523-1.351 1.24-1.478l15.425-2.726a1.498 1.498 0 011.713 1.849L33.46 23.28a1.499 1.499 0 01-1.453 1.128zm-10.685-3h9.52l2.375-9.284-11.895 2.103v7.181z"/><path d="M36.822 15.908a1.5 1.5 0 01-1.5-1.5v-8h-10v4a1.5 1.5 0 11-3 0v-5.5a1.5 1.5 0 011.5-1.5h13a1.5 1.5 0 011.5 1.5v9.5a1.5 1.5 0 01-1.5 1.5z"/></svg>