<svg xmlns="http://www.w3.org/2000/svg" viewBox="0 0 324.143 324.143"><path d="M162.071 7.5C77.162 7.5 8.33 76.331 8.33 161.241c0 38.283 13.997 73.295 37.147 100.207-6.953 19.986-19.807 37.209-36.479 49.581a104.195 104.195 0 0033.757 5.613c20.214 0 39.082-5.751 55.067-15.698 19.551 9.007 41.312 14.039 64.249 14.039 84.909 0 153.741-68.833 153.741-153.742C315.813 76.331 246.98 7.5 162.071 7.5z" fill="#005cb9"/><path d="M138.995 247.544h36.112v-90.282h26.804l3.29-36.115h-28.7v-14.44c0-7.037 4.69-8.671 7.984-8.671h20.258V67.093l-27.896-.113c-30.963 0-38.002 23.075-38.002 37.849v16.318h-17.906v36.115h18.056v90.282z" fill="#fff"/><path d="M205.201 113.646h-21.2v-6.94c0-.568.057-.932.106-1.142a2.27 2.27 0 01.378-.029h20.258c4.143 0 7.5-3.357 7.5-7.5V67.093a7.5 7.5 0 00-7.47-7.5l-27.926-.113c-33.585 0-45.502 24.429-45.502 45.349v8.818h-10.406a7.499 7.499 0 00-7.5 7.5v36.115c0 4.143 3.357 7.5 7.5 7.5h10.556v82.782c0 4.143 3.357 7.5 7.5 7.5h36.112c4.143 0 7.5-3.357 7.5-7.5v-82.782h19.304a7.5 7.5 0 007.469-6.819l3.29-36.115a7.497 7.497 0 00-1.93-5.737 7.496 7.496 0 00-5.539-2.445zm-10.138 36.116h-19.956a7.499 7.499 0 00-7.5 7.5v82.782h-21.112v-82.782c0-4.143-3.357-7.5-7.5-7.5h-10.556v-21.115h10.406c4.143 0 7.5-3.357 7.5-7.5v-16.318c0-9.125 2.972-30.349 30.472-30.349l20.426.083v15.973h-12.758c-7.458 0-15.484 5.061-15.484 16.171v14.44c0 4.143 3.357 7.5 7.5 7.5h20.486l-1.924 21.115zM162.071 0C73.162 0 .83 72.332.83 161.241c0 37.076 12.788 73.004 36.1 101.677-6.65 16.756-17.788 31.245-32.401 42.089a7.497 7.497 0 00-2.94 7.177 7.497 7.497 0 004.985 5.942 111.667 111.667 0 0036.182 6.017c19.572 0 38.698-5.093 55.569-14.763 20.158 8.696 41.584 13.104 63.747 13.104 88.909 0 161.241-72.333 161.241-161.242S250.98 0 162.071 0zm0 307.483c-21.32 0-41.881-4.492-61.11-13.351a7.497 7.497 0 00-7.102.443c-15.313 9.529-32.985 14.566-51.104 14.566a96.601 96.601 0 01-17.981-1.684c12.521-12.12 22.014-26.95 27.788-43.547a7.499 7.499 0 00-1.398-7.354C28.378 230.07 15.83 196.22 15.83 161.241 15.83 80.604 81.434 15 162.071 15s146.241 65.604 146.241 146.241c.001 80.639-65.603 146.242-146.241 146.242z" fill="#071c2c"/></svg>