<svg id="visual" viewBox="0 0 900 450" width="900" height="450" xmlns="http://www.w3.org/2000/svg" xmlns:xlink="http://www.w3.org/1999/xlink" version="1.1"><rect x="0" y="0" width="900" height="450" fill="#fff"></rect><path d="M0 91L75 91L75 83L150 83L150 100L225 100L225 77L300 77L300 56L375 56L375 82L450 82L450 109L525 109L525 106L600 106L600 81L675 81L675 78L750 78L750 80L825 80L825 54L900 54L900 104L900 0L900 0L825 0L825 0L750 0L750 0L675 0L675 0L600 0L600 0L525 0L525 0L450 0L450 0L375 0L375 0L300 0L300 0L225 0L225 0L150 0L150 0L75 0L75 0L0 0Z" fill="#ff0303"></path><path d="M0 57L75 57L75 39L150 39L150 71L225 71L225 36L300 36L300 39L375 39L375 36L450 36L450 46L525 46L525 72L600 72L600 66L675 66L675 64L750 64L750 33L825 33L825 78L900 78L900 38L900 0L900 0L825 0L825 0L750 0L750 0L675 0L675 0L600 0L600 0L525 0L525 0L450 0L450 0L375 0L375 0L300 0L300 0L225 0L225 0L150 0L150 0L75 0L75 0L0 0Z" fill="#a60000"></path><path d="M0 27L75 27L75 51L150 51L150 36L225 36L225 24L300 24L300 52L375 52L375 15L450 15L450 18L525 18L525 23L600 23L600 16L675 16L675 52L750 52L750 51L825 51L825 33L900 33L900 49L900 0L900 0L825 0L825 0L750 0L750 0L675 0L675 0L600 0L600 0L525 0L525 0L450 0L450 0L375 0L375 0L300 0L300 0L225 0L225 0L150 0L150 0L75 0L75 0L0 0Z" fill="#000000"></path></svg>