<svg id="visual" viewBox="0 0 900 450" width="900" height="450" xmlns="http://www.w3.org/2000/svg" xmlns:xlink="http://www.w3.org/1999/xlink" version="1.1"><rect x="0" y="0" width="900" height="450" fill="#FFFFFF"></rect><path d="M0 257L10.7 254.8C21.3 252.7 42.7 248.3 64.2 247.2C85.7 246 107.3 248 128.8 234.5C150.3 221 171.7 192 193 175C214.3 158 235.7 153 257 163.2C278.3 173.3 299.7 198.7 321.2 205.2C342.7 211.7 364.3 199.3 385.8 197.5C407.3 195.7 428.7 204.3 450 214.8C471.3 225.3 492.7 237.7 514.2 242.7C535.7 247.7 557.3 245.3 578.8 239.7C600.3 234 621.7 225 643 225.3C664.3 225.7 685.7 235.3 707 224.5C728.3 213.7 749.7 182.3 771.2 167.5C792.7 152.7 814.3 154.3 835.8 164.5C857.3 174.7 878.7 193.3 889.3 202.7L900 212L900 451L889.3 451C878.7 451 857.3 451 835.8 451C814.3 451 792.7 451 771.2 451C749.7 451 728.3 451 707 451C685.7 451 664.3 451 643 451C621.7 451 600.3 451 578.8 451C557.3 451 535.7 451 514.2 451C492.7 451 471.3 451 450 451C428.7 451 407.3 451 385.8 451C364.3 451 342.7 451 321.2 451C299.7 451 278.3 451 257 451C235.7 451 214.3 451 193 451C171.7 451 150.3 451 128.8 451C107.3 451 85.7 451 64.2 451C42.7 451 21.3 451 10.7 451L0 451Z" fill="#33ff00"></path><path d="M0 276L10.7 262.8C21.3 249.7 42.7 223.3 64.2 209C85.7 194.7 107.3 192.3 128.8 191C150.3 189.7 171.7 189.3 193 201C214.3 212.7 235.7 236.3 257 250.5C278.3 264.7 299.7 269.3 321.2 255.8C342.7 242.3 364.3 210.7 385.8 206.2C407.3 201.7 428.7 224.3 450 223C471.3 221.7 492.7 196.3 514.2 193.8C535.7 191.3 557.3 211.7 578.8 222.2C600.3 232.7 621.7 233.3 643 239.7C664.3 246 685.7 258 707 252.7C728.3 247.3 749.7 224.7 771.2 209.8C792.7 195 814.3 188 835.8 195C857.3 202 878.7 223 889.3 233.5L900 244L900 451L889.3 451C878.7 451 857.3 451 835.8 451C814.3 451 792.7 451 771.2 451C749.7 451 728.3 451 707 451C685.7 451 664.3 451 643 451C621.7 451 600.3 451 578.8 451C557.3 451 535.7 451 514.2 451C492.7 451 471.3 451 450 451C428.7 451 407.3 451 385.8 451C364.3 451 342.7 451 321.2 451C299.7 451 278.3 451 257 451C235.7 451 214.3 451 193 451C171.7 451 150.3 451 128.8 451C107.3 451 85.7 451 64.2 451C42.7 451 21.3 451 10.7 451L0 451Z" fill="#5bff00"></path><path d="M0 219L10.7 228C21.3 237 42.7 255 64.2 258.8C85.7 262.7 107.3 252.3 128.8 239C150.3 225.7 171.7 209.3 193 211C214.3 212.7 235.7 232.3 257 249.5C278.3 266.7 299.7 281.3 321.2 287.2C342.7 293 364.3 290 385.8 289.8C407.3 289.7 428.7 292.3 450 282C471.3 271.7 492.7 248.3 514.2 247.3C535.7 246.3 557.3 267.7 578.8 277.5C600.3 287.3 621.7 285.7 643 281.3C664.3 277 685.7 270 707 260.3C728.3 250.7 749.7 238.3 771.2 240.2C792.7 242 814.3 258 835.8 259.5C857.3 261 878.7 248 889.3 241.5L900 235L900 451L889.3 451C878.7 451 857.3 451 835.8 451C814.3 451 792.7 451 771.2 451C749.7 451 728.3 451 707 451C685.7 451 664.3 451 643 451C621.7 451 600.3 451 578.8 451C557.3 451 535.7 451 514.2 451C492.7 451 471.3 451 450 451C428.7 451 407.3 451 385.8 451C364.3 451 342.7 451 321.2 451C299.7 451 278.3 451 257 451C235.7 451 214.3 451 193 451C171.7 451 150.3 451 128.8 451C107.3 451 85.7 451 64.2 451C42.7 451 21.3 451 10.7 451L0 451Z" fill="#75ff00"></path><path d="M0 295L10.7 287.2C21.3 279.3 42.7 263.7 64.2 256.3C85.7 249 107.3 250 128.8 246.7C150.3 243.3 171.7 235.7 193 239.3C214.3 243 235.7 258 257 261.5C278.3 265 299.7 257 321.2 259.2C342.7 261.3 364.3 273.7 385.8 284.3C407.3 295 428.7 304 450 300C471.3 296 492.7 279 514.2 270.3C535.7 261.7 557.3 261.3 578.8 268.3C600.3 275.3 621.7 289.7 643 294.3C664.3 299 685.7 294 707 285.8C728.3 277.7 749.7 266.3 771.2 255.2C792.7 244 814.3 233 835.8 241.3C857.3 249.7 878.7 277.3 889.3 291.2L900 305L900 451L889.3 451C878.7 451 857.3 451 835.8 451C814.3 451 792.7 451 771.2 451C749.7 451 728.3 451 707 451C685.7 451 664.3 451 643 451C621.7 451 600.3 451 578.8 451C557.3 451 535.7 451 514.2 451C492.7 451 471.3 451 450 451C428.7 451 407.3 451 385.8 451C364.3 451 342.7 451 321.2 451C299.7 451 278.3 451 257 451C235.7 451 214.3 451 193 451C171.7 451 150.3 451 128.8 451C107.3 451 85.7 451 64.2 451C42.7 451 21.3 451 10.7 451L0 451Z" fill="#8aff06"></path><path d="M0 250L10.7 261.8C21.3 273.7 42.7 297.3 64.2 298C85.7 298.7 107.3 276.3 128.8 264.5C150.3 252.7 171.7 251.3 193 250C214.3 248.7 235.7 247.3 257 259C278.3 270.7 299.7 295.3 321.2 301.8C342.7 308.3 364.3 296.7 385.8 284.8C407.3 273 428.7 261 450 257.2C471.3 253.3 492.7 257.7 514.2 266.8C535.7 276 557.3 290 578.8 290C600.3 290 621.7 276 643 278C664.3 280 685.7 298 707 298.3C728.3 298.7 749.7 281.3 771.2 276.3C792.7 271.3 814.3 278.7 835.8 277.5C857.3 276.3 878.7 266.7 889.3 261.8L900 257L900 451L889.3 451C878.7 451 857.3 451 835.8 451C814.3 451 792.7 451 771.2 451C749.7 451 728.3 451 707 451C685.7 451 664.3 451 643 451C621.7 451 600.3 451 578.8 451C557.3 451 535.7 451 514.2 451C492.7 451 471.3 451 450 451C428.7 451 407.3 451 385.8 451C364.3 451 342.7 451 321.2 451C299.7 451 278.3 451 257 451C235.7 451 214.3 451 193 451C171.7 451 150.3 451 128.8 451C107.3 451 85.7 451 64.2 451C42.7 451 21.3 451 10.7 451L0 451Z" fill="#9dff11"></path><path d="M0 273L10.7 273C21.3 273 42.7 273 64.2 277.3C85.7 281.7 107.3 290.3 128.8 301.7C150.3 313 171.7 327 193 325C214.3 323 235.7 305 257 303.2C278.3 301.3 299.7 315.7 321.2 318.2C342.7 320.7 364.3 311.3 385.8 312.7C407.3 314 428.7 326 450 329.5C471.3 333 492.7 328 514.2 326.7C535.7 325.3 557.3 327.7 578.8 326.8C600.3 326 621.7 322 643 322.5C664.3 323 685.7 328 707 330.5C728.3 333 749.7 333 771.2 329.8C792.7 326.7 814.3 320.3 835.8 317.8C857.3 315.3 878.7 316.7 889.3 317.3L900 318L900 451L889.3 451C878.7 451 857.3 451 835.8 451C814.3 451 792.7 451 771.2 451C749.7 451 728.3 451 707 451C685.7 451 664.3 451 643 451C621.7 451 600.3 451 578.8 451C557.3 451 535.7 451 514.2 451C492.7 451 471.3 451 450 451C428.7 451 407.3 451 385.8 451C364.3 451 342.7 451 321.2 451C299.7 451 278.3 451 257 451C235.7 451 214.3 451 193 451C171.7 451 150.3 451 128.8 451C107.3 451 85.7 451 64.2 451C42.7 451 21.3 451 10.7 451L0 451Z" fill="#adff1b"></path><path d="M0 313L10.7 314.2C21.3 315.3 42.7 317.7 64.2 318C85.7 318.3 107.3 316.7 128.8 313.2C150.3 309.7 171.7 304.3 193 309.8C214.3 315.3 235.7 331.7 257 332C278.3 332.3 299.7 316.7 321.2 314.7C342.7 312.7 364.3 324.3 385.8 334.2C407.3 344 428.7 352 450 348.2C471.3 344.3 492.7 328.7 514.2 318.5C535.7 308.3 557.3 303.7 578.8 311C600.3 318.3 621.7 337.7 643 345.3C664.3 353 685.7 349 707 341.3C728.3 333.7 749.7 322.3 771.2 317C792.7 311.7 814.3 312.3 835.8 320.3C857.3 328.3 878.7 343.7 889.3 351.3L900 359L900 451L889.3 451C878.7 451 857.3 451 835.8 451C814.3 451 792.7 451 771.2 451C749.7 451 728.3 451 707 451C685.7 451 664.3 451 643 451C621.7 451 600.3 451 578.8 451C557.3 451 535.7 451 514.2 451C492.7 451 471.3 451 450 451C428.7 451 407.3 451 385.8 451C364.3 451 342.7 451 321.2 451C299.7 451 278.3 451 257 451C235.7 451 214.3 451 193 451C171.7 451 150.3 451 128.8 451C107.3 451 85.7 451 64.2 451C42.7 451 21.3 451 10.7 451L0 451Z" fill="#bcff25"></path><path d="M0 335L10.7 340.5C21.3 346 42.7 357 64.2 364.2C85.7 371.3 107.3 374.7 128.8 368.7C150.3 362.7 171.7 347.3 193 338C214.3 328.7 235.7 325.3 257 330.7C278.3 336 299.7 350 321.2 353.3C342.7 356.7 364.3 349.3 385.8 353C407.3 356.7 428.7 371.3 450 372.5C471.3 373.7 492.7 361.3 514.2 353.2C535.7 345 557.3 341 578.8 344C600.3 347 621.7 357 643 364C664.3 371 685.7 375 707 378.5C728.3 382 749.7 385 771.2 376.7C792.7 368.3 814.3 348.7 835.8 342.7C857.3 336.7 878.7 344.3 889.3 348.2L900 352L900 451L889.3 451C878.7 451 857.3 451 835.8 451C814.3 451 792.7 451 771.2 451C749.7 451 728.3 451 707 451C685.7 451 664.3 451 643 451C621.7 451 600.3 451 578.8 451C557.3 451 535.7 451 514.2 451C492.7 451 471.3 451 450 451C428.7 451 407.3 451 385.8 451C364.3 451 342.7 451 321.2 451C299.7 451 278.3 451 257 451C235.7 451 214.3 451 193 451C171.7 451 150.3 451 128.8 451C107.3 451 85.7 451 64.2 451C42.7 451 21.3 451 10.7 451L0 451Z" fill="#c9ff2e"></path><path d="M0 366L10.7 369.2C21.3 372.3 42.7 378.7 64.2 381.3C85.7 384 107.3 383 128.8 383.2C150.3 383.3 171.7 384.7 193 381C214.3 377.3 235.7 368.7 257 368C278.3 367.3 299.7 374.7 321.2 373.5C342.7 372.3 364.3 362.7 385.8 361.8C407.3 361 428.7 369 450 370.2C471.3 371.3 492.7 365.7 514.2 362.2C535.7 358.7 557.3 357.3 578.8 357C600.3 356.7 621.7 357.3 643 362C664.3 366.7 685.7 375.3 707 379.7C728.3 384 749.7 384 771.2 384.7C792.7 385.3 814.3 386.7 835.8 382.8C857.3 379 878.7 370 889.3 365.5L900 361L900 451L889.3 451C878.7 451 857.3 451 835.8 451C814.3 451 792.7 451 771.2 451C749.7 451 728.3 451 707 451C685.7 451 664.3 451 643 451C621.7 451 600.3 451 578.8 451C557.3 451 535.7 451 514.2 451C492.7 451 471.3 451 450 451C428.7 451 407.3 451 385.8 451C364.3 451 342.7 451 321.2 451C299.7 451 278.3 451 257 451C235.7 451 214.3 451 193 451C171.7 451 150.3 451 128.8 451C107.3 451 85.7 451 64.2 451C42.7 451 21.3 451 10.7 451L0 451Z" fill="#d6ff37"></path><path d="M0 391L10.7 389.7C21.3 388.3 42.7 385.7 64.2 389.8C85.7 394 107.3 405 128.8 410.8C150.3 416.7 171.7 417.3 193 413.3C214.3 409.3 235.7 400.7 257 397.2C278.3 393.7 299.7 395.3 321.2 392.5C342.7 389.7 364.3 382.3 385.8 386.3C407.3 390.3 428.7 405.7 450 408C471.3 410.3 492.7 399.7 514.2 393.3C535.7 387 557.3 385 578.8 389.5C600.3 394 621.7 405 643 410.3C664.3 415.7 685.7 415.3 707 413.8C728.3 412.3 749.7 409.7 771.2 407.5C792.7 405.3 814.3 403.7 835.8 405.5C857.3 407.3 878.7 412.7 889.3 415.3L900 418L900 451L889.3 451C878.7 451 857.3 451 835.8 451C814.3 451 792.7 451 771.2 451C749.7 451 728.3 451 707 451C685.7 451 664.3 451 643 451C621.7 451 600.3 451 578.8 451C557.3 451 535.7 451 514.2 451C492.7 451 471.3 451 450 451C428.7 451 407.3 451 385.8 451C364.3 451 342.7 451 321.2 451C299.7 451 278.3 451 257 451C235.7 451 214.3 451 193 451C171.7 451 150.3 451 128.8 451C107.3 451 85.7 451 64.2 451C42.7 451 21.3 451 10.7 451L0 451Z" fill="#e2ff40"></path><path d="M0 425L10.7 422.2C21.3 419.3 42.7 413.7 64.2 413.7C85.7 413.7 107.3 419.3 128.8 418.2C150.3 417 171.7 409 193 409.8C214.3 410.7 235.7 420.3 257 425.2C278.3 430 299.7 430 321.2 431.8C342.7 433.7 364.3 437.3 385.8 438.2C407.3 439 428.7 437 450 434.8C471.3 432.7 492.7 430.3 514.2 425.5C535.7 420.7 557.3 413.3 578.8 408.7C600.3 404 621.7 402 643 406.8C664.3 411.7 685.7 423.3 707 429.7C728.3 436 749.7 437 771.2 433.3C792.7 429.7 814.3 421.3 835.8 420.8C857.3 420.3 878.7 427.7 889.3 431.3L900 435L900 451L889.3 451C878.7 451 857.3 451 835.8 451C814.3 451 792.7 451 771.2 451C749.7 451 728.3 451 707 451C685.7 451 664.3 451 643 451C621.7 451 600.3 451 578.8 451C557.3 451 535.7 451 514.2 451C492.7 451 471.3 451 450 451C428.7 451 407.3 451 385.8 451C364.3 451 342.7 451 321.2 451C299.7 451 278.3 451 257 451C235.7 451 214.3 451 193 451C171.7 451 150.3 451 128.8 451C107.3 451 85.7 451 64.2 451C42.7 451 21.3 451 10.7 451L0 451Z" fill="#edff49"></path></svg>