<svg xmlns="http://www.w3.org/2000/svg" viewBox="0 0 392.533 392.533"><path d="M100.202 165.947c-27.281 0-49.455 22.174-49.455 49.455s22.174 49.455 49.455 49.455 49.455-22.174 49.455-49.455-22.174-49.455-49.455-49.455zm0 77.124c-15.257 0-27.604-12.347-27.604-27.604s12.412-27.604 27.604-27.604c15.192 0 27.604 12.347 27.604 27.604s-12.347 27.604-27.604 27.604zm100.137 136.921c-.84-54.432-45.446-98.521-100.137-98.521C44.929 281.471.065 326.336.065 381.608c0 6.012 4.849 10.925 10.925 10.925h178.554c11.83 0 10.925-11.959 10.795-12.541zm-177.713-9.245c5.301-38.077 38.077-67.491 77.576-67.491 39.499 0 72.275 29.35 77.576 67.491H22.626zM278.626 0C215.79 0 164.655 51.135 164.655 113.972a113.75 113.75 0 0024.113 70.012l-13.123 67.943c-.84 4.396 1.099 8.857 4.849 11.313 3.426 2.133 9.503 1.681 12.283-.453l53.527-39.564a112.175 112.175 0 0032.194 4.719c62.836 0 113.972-51.135 113.972-113.972S341.463 0 278.626 0zm0 206.093a90.496 90.496 0 01-30.513-5.301c-3.426-1.228-7.176-.646-10.149 1.552l-35.62 26.246 8.792-45.511c.646-3.232-.259-6.659-2.392-9.18-14.352-16.679-22.238-38.012-22.238-59.992 0-50.877 41.309-92.186 92.186-92.186 50.877 0 92.186 41.309 92.186 92.186-.001 50.877-41.375 92.186-92.252 92.186z"/><path d="M279.273 39.693h-.646c-11.507 0-22.432 4.461-30.578 12.606-8.339 8.275-12.994 19.329-12.994 31.095 0 6.012 4.849 10.925 10.925 10.925a10.87 10.87 0 0010.925-10.925c0-5.883 2.327-11.442 6.465-15.515 4.137-4.073 9.762-6.4 15.58-6.271 11.507.129 21.333 9.956 21.463 21.463.065 7.758-3.685 14.739-10.279 18.877-14.093 8.727-22.432 23.337-22.432 39.047 0 6.012 4.849 10.925 10.925 10.925 6.012 0 10.925-4.849 10.925-10.925 0-8.146 4.59-15.774 12.154-20.493 13.123-8.21 20.816-22.238 20.558-37.624-.389-23.533-19.589-42.797-42.991-43.185zm-.647 122.505c-6.012 0-10.925 4.848-10.925 10.925v4.202c0 6.012 4.849 10.925 10.925 10.925 6.012 0 10.925-4.849 10.925-10.925v-4.202c.001-6.077-4.913-10.925-10.925-10.925z"/></svg>