<svg id="visual" viewBox="0 0 900 450" width="900" height="450" xmlns="http://www.w3.org/2000/svg" xmlns:xlink="http://www.w3.org/1999/xlink" version="1.1"><rect x="0" y="0" width="900" height="450" fill="#fff"></rect><path d="M0 172L129 172L129 217L257 217L257 202L386 202L386 246L514 246L514 162L643 162L643 168L771 168L771 165L900 165L900 178L900 0L900 0L771 0L771 0L643 0L643 0L514 0L514 0L386 0L386 0L257 0L257 0L129 0L129 0L0 0Z" fill="#ff0303"></path><path d="M0 106L129 106L129 161L257 161L257 183L386 183L386 143L514 143L514 174L643 174L643 109L771 109L771 160L900 160L900 169L900 0L900 0L771 0L771 0L643 0L643 0L514 0L514 0L386 0L386 0L257 0L257 0L129 0L129 0L0 0Z" fill="#a60000"></path><path d="M0 86L129 86L129 59L257 59L257 99L386 99L386 105L514 105L514 52L643 52L643 110L771 110L771 73L900 73L900 114L900 0L900 0L771 0L771 0L643 0L643 0L514 0L514 0L386 0L386 0L257 0L257 0L129 0L129 0L0 0Z" fill="#000000"></path></svg>