<svg id="visual" viewBox="0 0 900 450" width="900" height="450" xmlns="http://www.w3.org/2000/svg" xmlns:xlink="http://www.w3.org/1999/xlink" version="1.1"><rect x="0" y="0" width="900" height="450" fill="#fff"></rect><path d="M0 217L50 217L50 220L100 220L100 177L150 177L150 334L200 334L200 154L250 154L250 235L300 235L300 331L350 331L350 160L400 160L400 236L450 236L450 242L500 242L500 249L550 249L550 138L600 138L600 191L650 191L650 287L700 287L700 303L750 303L750 217L800 217L800 196L850 196L850 148L900 148L900 273L900 451L900 451L850 451L850 451L800 451L800 451L750 451L750 451L700 451L700 451L650 451L650 451L600 451L600 451L550 451L550 451L500 451L500 451L450 451L450 451L400 451L400 451L350 451L350 451L300 451L300 451L250 451L250 451L200 451L200 451L150 451L150 451L100 451L100 451L50 451L50 451L0 451Z" fill="#000000"></path><path d="M0 337L50 337L50 359L100 359L100 292L150 292L150 260L200 260L200 305L250 305L250 253L300 253L300 212L350 212L350 198L400 198L400 203L450 203L450 206L500 206L500 273L550 273L550 228L600 228L600 200L650 200L650 260L700 260L700 330L750 330L750 223L800 223L800 298L850 298L850 317L900 317L900 332L900 451L900 451L850 451L850 451L800 451L800 451L750 451L750 451L700 451L700 451L650 451L650 451L600 451L600 451L550 451L550 451L500 451L500 451L450 451L450 451L400 451L400 451L350 451L350 451L300 451L300 451L250 451L250 451L200 451L200 451L150 451L150 451L100 451L100 451L50 451L50 451L0 451Z" fill="#830000"></path><path d="M0 364L50 364L50 359L100 359L100 287L150 287L150 322L200 322L200 349L250 349L250 321L300 321L300 271L350 271L350 374L400 374L400 389L450 389L450 375L500 375L500 321L550 321L550 393L600 393L600 302L650 302L650 311L700 311L700 352L750 352L750 348L800 348L800 388L850 388L850 366L900 366L900 365L900 451L900 451L850 451L850 451L800 451L800 451L750 451L750 451L700 451L700 451L650 451L650 451L600 451L600 451L550 451L550 451L500 451L500 451L450 451L450 451L400 451L400 451L350 451L350 451L300 451L300 451L250 451L250 451L200 451L200 451L150 451L150 451L100 451L100 451L50 451L50 451L0 451Z" fill="#c30101"></path><path d="M0 333L50 333L50 387L100 387L100 396L150 396L150 329L200 329L200 401L250 401L250 327L300 327L300 350L350 350L350 363L400 363L400 337L450 337L450 404L500 404L500 353L550 353L550 369L600 369L600 386L650 386L650 375L700 375L700 350L750 350L750 367L800 367L800 425L850 425L850 357L900 357L900 402L900 451L900 451L850 451L850 451L800 451L800 451L750 451L750 451L700 451L700 451L650 451L650 451L600 451L600 451L550 451L550 451L500 451L500 451L450 451L450 451L400 451L400 451L350 451L350 451L300 451L300 451L250 451L250 451L200 451L200 451L150 451L150 451L100 451L100 451L50 451L50 451L0 451Z" fill="#ff0303"></path></svg>