<svg id="visual" viewBox="0 0 900 450" width="900" height="450" xmlns="http://www.w3.org/2000/svg" xmlns:xlink="http://www.w3.org/1999/xlink" version="1.1"><rect x="0" y="0" width="900" height="450" fill="#36ff00"></rect><g transform="translate(565.0233412828798 190.67293195976004)"><path d="M64.1 -43.5C115.2 -66.9 210.9 -103.4 299.3 -85.2C387.8 -67 469.1 6.1 433.2 42.6C397.4 79.2 244.4 79.2 159.8 90.3C75.2 101.4 59 123.6 33 147.1C7 170.5 -28.7 195.1 -122.8 246.1C-216.8 297.1 -369.2 374.5 -457.5 352.1C-545.9 329.7 -570.4 207.6 -611.4 73.9C-652.4 -59.8 -710 -205.2 -636.9 -260.1C-563.9 -315 -360.4 -279.5 -232.4 -221.1C-104.5 -162.6 -52.3 -81.3 -22.9 -45.7C6.5 -10.1 13 -20.2 64.1 -43.5" fill="#e8fe0d"></path></g></svg>