<svg xmlns="http://www.w3.org/2000/svg" xmlns:xlink="http://www.w3.org/1999/xlink" width="500" zoomAndPan="magnify" viewBox="0 0 375 187.499995" height="250" preserveAspectRatio="xMidYMid meet" version="1.0"><defs><g/><clipPath id="id1"><path d="M 311.183594 140.027344 L 333.355469 140.027344 L 333.355469 162.199219 L 311.183594 162.199219 Z M 311.183594 140.027344 " clip-rule="nonzero"/></clipPath><clipPath id="id2"><path d="M 153 58 L 160 58 L 160 62.238281 L 153 62.238281 Z M 153 58 " clip-rule="nonzero"/></clipPath><clipPath id="id3"><path d="M 138.75 38 L 145 38 L 145 40 L 138.75 40 Z M 138.75 38 " clip-rule="nonzero"/></clipPath><clipPath id="id4"><path d="M 168 38 L 174.566406 38 L 174.566406 40 L 168 40 Z M 168 38 " clip-rule="nonzero"/></clipPath><clipPath id="id5"><path d="M 155 21.304688 L 158 21.304688 L 158 27 L 155 27 Z M 155 21.304688 " clip-rule="nonzero"/></clipPath></defs><g fill="rgb(97.648621%, 4.309082%, 2.749634%)" fill-opacity="1"><g transform="translate(63.869146, 172.710307)"><g><path d="M 35.328125 -51.527344 C 41.066406 -45.671875 45.898438 -41.695312 49.765625 -39.703125 C 51.257812 -38.960938 52.71875 -38.273438 54.238281 -37.613281 C 55.699219 -36.925781 57.214844 -36.402344 58.671875 -35.988281 C 59.386719 -35.804688 60.074219 -35.679688 60.789062 -35.636719 C 61.695312 -35.488281 63.199219 -35.648438 65.246094 -36.09375 C 66.882812 -36.53125 68.679688 -37.1875 70.585938 -38.042969 C 72.515625 -38.839844 74.171875 -39.90625 75.464844 -41.132812 C 76.597656 -42.140625 77.453125 -43.550781 77.945312 -45.394531 C 78.507812 -47.757812 78.765625 -50.582031 78.710938 -53.871094 C 78.648438 -57.703125 78.132812 -62.546875 77.160156 -68.390625 C 76.191406 -74.238281 74.941406 -80.21875 73.417969 -86.328125 C 71.894531 -92.441406 70.1875 -98.25 68.285156 -103.890625 C 66.386719 -109.527344 64.535156 -114.019531 62.644531 -117.386719 C 61.738281 -119.125 60.589844 -120.804688 59.246094 -122.589844 C 57.847656 -124.347656 56.214844 -125.363281 54.238281 -125.714844 C 51.984375 -126.199219 47.914062 -125.394531 41.972656 -123.40625 C 35.980469 -121.394531 33.589844 -118.421875 34.636719 -114.550781 C 34.929688 -113.457031 35.328125 -112.425781 35.949219 -111.503906 C 36.566406 -110.582031 37.074219 -109.601562 37.554688 -108.679688 C 41.105469 -102.519531 44.289062 -95.335938 47.023438 -87.164062 C 49.789062 -78.933594 51.976562 -70.613281 53.675781 -62.175781 C 47.066406 -67.578125 40.972656 -73.449219 35.335938 -79.769531 C 28.753906 -88.703125 24.699219 -93.980469 23.082031 -95.625 C 21.414062 -97.242188 18.160156 -96.722656 13.191406 -94.066406 C 8.21875 -91.414062 5.902344 -88.964844 6.378906 -86.726562 C 6.796875 -84.457031 8.84375 -78.136719 12.578125 -67.648438 C 15.109375 -60.128906 16.394531 -51.683594 16.382812 -42.289062 C 10.421875 -48.4375 4.863281 -55.003906 -0.261719 -61.933594 C -5.414062 -68.78125 -9.574219 -75.453125 -12.636719 -81.871094 C -13.117188 -82.792969 -13.628906 -83.773438 -14.054688 -84.859375 C -14.511719 -85.867188 -15.074219 -86.816406 -15.71875 -87.65625 C -18.394531 -90.679688 -22.089844 -90.347656 -26.933594 -86.652344 C -31.75 -82.902344 -34.550781 -80.0625 -35.285156 -78.023438 C -35.96875 -76.152344 -36.046875 -74.175781 -35.351562 -72.050781 C -34.660156 -69.925781 -33.890625 -68.046875 -32.933594 -66.339844 C -31.261719 -62.859375 -28.699219 -58.734375 -25.171875 -54.082031 C -21.617188 -49.371094 -17.789062 -44.667969 -13.65625 -39.914062 C -9.527344 -35.15625 -5.398438 -30.675781 -1.195312 -26.582031 C 3.035156 -22.429688 6.675781 -19.285156 9.722656 -17.140625 C 12.273438 -15.15625 14.734375 -13.742188 17.105469 -12.90625 C 18.8125 -12.277344 20.351562 -12.109375 21.769531 -12.433594 C 23.433594 -12.816406 25.121094 -13.554688 26.828125 -14.652344 C 28.539062 -15.746094 30.027344 -16.867188 31.324219 -17.957031 C 32.726562 -19.375 33.636719 -20.542969 34.0625 -21.453125 C 34.324219 -22.003906 34.617188 -22.640625 34.878906 -23.328125 C 35.269531 -24.703125 35.65625 -26.21875 35.902344 -27.867188 C 36.179688 -29.457031 36.398438 -31.023438 36.59375 -32.644531 C 36.960938 -36.839844 36.53125 -43.105469 35.328125 -51.527344 Z M 35.328125 -51.527344 "/></g></g></g><g fill="rgb(92.939758%, 100%, 28.62854%)" fill-opacity="1"><g transform="translate(149.050732, 128.742707)"><g><path d="M 13.441406 -52.613281 C 13.546875 -54.601562 13.214844 -55.910156 12.363281 -56.5 C 11.515625 -57.085938 10.398438 -57.453125 9.019531 -57.519531 C 8.050781 -57.535156 6.960938 -57.5 5.761719 -57.335938 C 4.558594 -57.171875 3.570312 -56.859375 2.714844 -56.394531 C 1.976562 -55.980469 1.378906 -55.253906 0.964844 -54.253906 C 0.402344 -53.042969 -0.0117188 -51.398438 -0.265625 -49.277344 C -0.59375 -46.992188 -0.75 -43.992188 -0.699219 -40.359375 C -0.6875 -36.722656 -0.503906 -32.898438 -0.152344 -28.960938 C 0.164062 -25.023438 0.632812 -21.175781 1.210938 -17.5 C 1.789062 -13.824219 2.441406 -10.796875 3.210938 -8.464844 C 3.578125 -7.238281 4.070312 -5.980469 4.722656 -4.730469 C 5.335938 -3.441406 6.210938 -2.492188 7.34375 -1.921875 C 7.933594 -1.5625 8.921875 -1.304688 10.304688 -1.160156 C 11.691406 -0.972656 13.105469 -0.988281 14.507812 -1.167969 C 15.90625 -1.347656 17.136719 -1.714844 18.183594 -2.351562 C 19.191406 -2.949219 19.691406 -3.871094 19.605469 -5.117188 C 19.480469 -5.796875 19.308594 -6.472656 19.058594 -7.179688 C 18.769531 -7.847656 18.5625 -8.519531 18.398438 -9.15625 C 16.277344 -15.230469 14.859375 -22.285156 14.058594 -30.351562 C 13.257812 -38.378906 13.027344 -45.796875 13.441406 -52.613281 Z M 13.441406 -52.613281 "/></g></g></g><g fill="rgb(92.939758%, 100%, 28.62854%)" fill-opacity="1"><g transform="translate(166.002549, 127.288811)"><g/></g></g><g fill="rgb(60.389709%, 95.689392%, 8.239746%)" fill-opacity="1"><g transform="translate(176.084094, 132.411588)"><g><path d="M 31.179688 -80.808594 C 30.425781 -81.320312 29.125 -81.898438 27.28125 -82.492188 C 25.757812 -82.859375 24.015625 -83.121094 22.160156 -83.332031 C 20.25 -83.542969 18.550781 -83.476562 17.066406 -83.128906 C 15.742188 -82.835938 14.632812 -82.097656 13.617188 -80.917969 C 12.265625 -79.308594 11.0625 -77.207031 10.066406 -74.605469 C 8.789062 -71.570312 7.539062 -67.609375 6.375 -62.65625 C 5.210938 -57.652344 4.207031 -52.480469 3.414062 -47.027344 C 2.621094 -41.574219 2.050781 -36.226562 1.703125 -31.039062 C 1.355469 -25.847656 1.410156 -21.523438 1.875 -18.121094 C 2.050781 -16.363281 2.386719 -14.496094 2.9375 -12.511719 C 3.492188 -10.527344 4.546875 -8.96875 6.050781 -7.839844 C 7.710938 -6.484375 11.347656 -5.242188 17.011719 -4.171875 C 22.621094 -3.101562 25.660156 -4.339844 26.1875 -7.828125 C 26.265625 -8.757812 26.234375 -9.742188 26.039062 -10.734375 C 25.847656 -11.722656 25.761719 -12.710938 25.675781 -13.695312 C 24.796875 -20.066406 24.585938 -27.019531 25.101562 -34.613281 C 25.621094 -42.207031 26.574219 -49.679688 28.070312 -57.027344 C 32.914062 -49.464844 37.109375 -42.136719 40.707031 -35.046875 C 44.308594 -27.953125 47.558594 -20.101562 50.40625 -11.382812 C 50.582031 -9.628906 50.976562 -7.867188 51.585938 -6.101562 C 52.144531 -4.28125 53.148438 -2.835938 54.542969 -1.757812 C 55.347656 -1.082031 56.808594 -0.390625 58.925781 0.320312 C 61.039062 1.027344 63.214844 1.519531 65.453125 1.796875 C 67.691406 2.070312 69.71875 1.957031 71.535156 1.507812 C 73.351562 1.0625 74.363281 -0.0625 74.625 -1.804688 C 74.703125 -2.679688 74.671875 -3.664062 74.535156 -4.652344 C 74.339844 -5.644531 74.199219 -6.632812 74.113281 -7.621094 C 72.917969 -16.621094 73.003906 -26.6875 74.429688 -37.871094 C 75.855469 -48.996094 78.023438 -59.121094 80.988281 -68.242188 C 81.820312 -70.847656 81.648438 -72.710938 80.578125 -73.832031 C 79.457031 -74.953125 77.839844 -75.816406 75.71875 -76.414062 C 74.195312 -76.78125 72.507812 -77.042969 70.597656 -77.253906 C 68.6875 -77.464844 66.988281 -77.398438 65.503906 -77.109375 C 64.238281 -76.757812 63.125 -76.019531 62.109375 -74.839844 C 60.8125 -73.285156 59.613281 -71.179688 58.507812 -68.582031 C 57.578125 -66.472656 56.691406 -63.867188 55.851562 -60.769531 C 55.007812 -57.671875 54.265625 -54.351562 53.574219 -50.757812 C 48.691406 -58.976562 43.785156 -66.320312 38.914062 -72.789062 C 37.957031 -73.964844 36.945312 -75.136719 35.9375 -76.367188 C 34.875 -77.542969 33.859375 -78.609375 32.789062 -79.617188 C 32.253906 -80.070312 31.71875 -80.464844 31.179688 -80.808594 Z M 31.179688 -80.808594 "/></g></g></g><g fill="rgb(16.468811%, 3.919983%, 86.669922%)" fill-opacity="1"><g transform="translate(248.609856, 147.363547)"><g><path d="M 21.363281 -77.539062 C 19.730469 -76.21875 18.765625 -74.941406 18.46875 -73.695312 C 18.167969 -72.453125 18.335938 -70.964844 18.816406 -69.140625 C 19.269531 -67.1875 19.859375 -65.269531 20.714844 -63.355469 C 21.566406 -61.4375 22.453125 -59.648438 23.414062 -57.902344 C 24.644531 -55.371094 26.078125 -52.855469 27.714844 -50.355469 C 29.347656 -47.859375 30.703125 -45.292969 31.78125 -42.667969 C 33.210938 -38.769531 32.574219 -35.308594 30.011719 -32.304688 C 28.75 -30.898438 27.320312 -29.597656 25.78125 -28.390625 C 24.238281 -27.183594 22.714844 -26.039062 21.234375 -25.078125 C 19.503906 -23.917969 17.496094 -22.953125 15.207031 -22.1875 C 12.917969 -21.425781 11.144531 -20.601562 9.847656 -19.597656 C 8.246094 -18.40625 7.71875 -16.492188 8.410156 -13.894531 C 9.085938 -11.230469 10.363281 -8.621094 12.277344 -5.921875 C 14.132812 -3.242188 16.402344 -0.917969 19.085938 1.042969 C 21.757812 3.066406 24.277344 4.070312 26.667969 3.988281 C 29.707031 3.929688 33.265625 3.074219 37.375 1.304688 C 41.191406 -0.34375 44.835938 -2.359375 48.304688 -4.75 C 51.757812 -7.074219 55.226562 -9.460938 58.710938 -11.910156 C 62.503906 -14.550781 66.203125 -17.34375 69.902344 -20.136719 C 73.597656 -22.929688 77.15625 -25.953125 80.695312 -29.179688 C 84.066406 -32.25 87.574219 -35.613281 91.214844 -39.277344 C 94.859375 -42.9375 97.773438 -46.839844 99.957031 -50.984375 C 101.585938 -54.210938 101.886719 -57.097656 100.78125 -59.601562 C 99.738281 -61.824219 98.304688 -64.078125 96.515625 -66.480469 C 94.710938 -68.824219 92.867188 -70.714844 90.835938 -72.125 C 88.621094 -73.578125 86.820312 -74.011719 85.445312 -73.488281 C 83.992188 -72.917969 82.558594 -71.882812 81.113281 -70.257812 C 78.699219 -67.613281 76.148438 -64.9375 73.457031 -62.234375 C 70.769531 -59.527344 67.855469 -57.265625 64.800781 -55.503906 C 63.71875 -54.84375 62.421875 -54.367188 61 -53.917969 C 59.511719 -53.488281 58.390625 -54.019531 57.605469 -55.394531 C 54.945312 -59.652344 53.042969 -64.320312 51.914062 -69.457031 C 50.78125 -74.597656 48.726562 -79.171875 45.746094 -83.179688 C 43.582031 -85.9375 40.8125 -86.734375 37.535156 -85.683594 C 34.8125 -84.757812 31.96875 -83.601562 29.0625 -82.195312 C 26.097656 -80.804688 23.550781 -79.246094 21.363281 -77.539062 Z M 21.363281 -77.539062 "/></g></g></g><g clip-path="url(#id1)"><path fill="rgb(0%, 0%, 0%)" d="M 322.269531 140.027344 C 316.160156 140.027344 311.183594 145.003906 311.183594 151.113281 C 311.183594 157.222656 316.160156 162.199219 322.269531 162.199219 C 328.378906 162.199219 333.355469 157.222656 333.355469 151.113281 C 333.355469 145.003906 328.378906 140.027344 322.269531 140.027344 Z M 322.269531 141.730469 C 327.460938 141.730469 331.652344 145.921875 331.652344 151.113281 C 331.652344 156.300781 327.460938 160.492188 322.269531 160.492188 C 317.078125 160.492188 312.890625 156.300781 312.890625 151.113281 C 312.890625 145.921875 317.078125 141.730469 322.269531 141.730469 Z M 322.269531 145.144531 C 318.984375 145.144531 316.300781 147.828125 316.300781 151.113281 C 316.300781 154.398438 318.984375 157.082031 322.269531 157.082031 C 324.460938 157.082031 326.394531 155.894531 327.425781 154.125 C 327.667969 153.71875 327.527344 153.199219 327.121094 152.957031 C 326.714844 152.71875 326.195312 152.851562 325.953125 153.257812 C 325.214844 154.523438 323.847656 155.375 322.269531 155.375 C 319.90625 155.375 318.003906 153.476562 318.003906 151.113281 C 318.003906 148.746094 319.90625 146.847656 322.269531 146.847656 C 323.847656 146.847656 325.222656 147.703125 325.960938 148.972656 C 326.105469 149.253906 326.394531 149.433594 326.707031 149.441406 C 327.019531 149.445312 327.3125 149.273438 327.464844 148.992188 C 327.621094 148.722656 327.605469 148.382812 327.433594 148.113281 C 326.402344 146.34375 324.46875 145.144531 322.269531 145.144531 Z M 322.269531 145.144531 " fill-opacity="1" fill-rule="nonzero"/></g><path fill="rgb(0%, 0%, 0%)" d="M 149.371094 46.648438 C 151.105469 48.46875 152.058594 50.796875 152.058594 53.203125 L 152.058594 53.699219 C 152.058594 53.75 152.0625 53.804688 152.074219 53.859375 C 152.074219 53.871094 152.082031 53.875 152.082031 53.886719 C 152.097656 53.945312 152.121094 54 152.152344 54.054688 C 152.15625 54.066406 152.164062 54.078125 152.171875 54.089844 C 152.207031 54.144531 152.25 54.191406 152.296875 54.234375 C 152.308594 54.242188 152.316406 54.25 152.328125 54.257812 C 152.382812 54.296875 152.4375 54.332031 152.5 54.355469 C 152.507812 54.359375 152.515625 54.359375 152.523438 54.363281 C 152.59375 54.382812 152.664062 54.398438 152.738281 54.398438 C 152.792969 54.398438 152.847656 54.390625 152.898438 54.378906 L 160.796875 52.65625 C 160.804688 52.652344 160.8125 52.648438 160.820312 52.648438 C 160.839844 52.640625 160.863281 52.632812 160.882812 52.625 C 160.90625 52.617188 160.925781 52.609375 160.945312 52.601562 C 160.964844 52.59375 160.980469 52.582031 161 52.570312 C 161.019531 52.558594 161.039062 52.546875 161.058594 52.535156 C 161.074219 52.519531 161.089844 52.507812 161.105469 52.492188 C 161.121094 52.476562 161.140625 52.464844 161.152344 52.445312 C 161.171875 52.429688 161.183594 52.410156 161.199219 52.390625 C 161.210938 52.375 161.222656 52.359375 161.230469 52.34375 C 161.246094 52.324219 161.253906 52.300781 161.265625 52.277344 C 161.273438 52.257812 161.28125 52.242188 161.289062 52.226562 C 161.296875 52.203125 161.304688 52.179688 161.308594 52.15625 C 161.3125 52.136719 161.320312 52.117188 161.324219 52.09375 C 161.324219 52.085938 161.328125 52.078125 161.328125 52.070312 C 161.570312 50.078125 162.488281 48.164062 163.90625 46.683594 C 165.726562 44.789062 166.730469 42.296875 166.730469 39.660156 C 166.730469 36.851562 165.613281 34.238281 163.582031 32.304688 C 161.554688 30.371094 158.894531 29.394531 156.097656 29.546875 C 150.816406 29.832031 146.636719 34.226562 146.578125 39.550781 C 146.550781 42.210938 147.542969 44.730469 149.371094 46.648438 Z M 156.171875 30.910156 C 158.585938 30.777344 160.894531 31.625 162.648438 33.296875 C 164.40625 34.96875 165.375 37.230469 165.375 39.660156 C 165.375 41.941406 164.507812 44.097656 162.929688 45.734375 C 161.425781 47.308594 160.421875 49.3125 160.0625 51.417969 L 153.398438 52.871094 C 153.316406 50.230469 152.25 47.695312 150.351562 45.703125 C 148.769531 44.042969 147.914062 41.863281 147.9375 39.566406 C 147.988281 34.960938 151.605469 31.15625 156.171875 30.910156 Z M 156.171875 30.910156 " fill-opacity="1" fill-rule="nonzero"/><path fill="rgb(0%, 0%, 0%)" d="M 160.472656 53.925781 L 152.554688 55.652344 C 152.1875 55.734375 151.953125 56.097656 152.035156 56.464844 C 152.101562 56.785156 152.382812 57.003906 152.695312 57.003906 C 152.742188 57.003906 152.792969 56.996094 152.839844 56.988281 L 160.757812 55.257812 C 161.125 55.179688 161.359375 54.816406 161.277344 54.445312 C 161.199219 54.078125 160.839844 53.84375 160.472656 53.925781 Z M 160.472656 53.925781 " fill-opacity="1" fill-rule="nonzero"/><path fill="rgb(0%, 0%, 0%)" d="M 161.316406 57.050781 C 161.238281 56.683594 160.878906 56.449219 160.511719 56.527344 L 152.59375 58.257812 C 152.226562 58.335938 151.992188 58.699219 152.074219 59.070312 C 152.140625 59.386719 152.421875 59.605469 152.734375 59.605469 C 152.78125 59.605469 152.832031 59.601562 152.878906 59.589844 L 160.796875 57.863281 C 161.164062 57.78125 161.398438 57.417969 161.316406 57.050781 Z M 161.316406 57.050781 " fill-opacity="1" fill-rule="nonzero"/><g clip-path="url(#id2)"><path fill="rgb(0%, 0%, 0%)" d="M 159.742188 59.523438 C 159.789062 59.148438 159.527344 58.808594 159.15625 58.757812 C 158.785156 58.707031 158.445312 58.972656 158.394531 59.347656 C 158.28125 60.21875 157.53125 60.875 156.652344 60.875 C 156.183594 60.875 155.742188 60.6875 155.40625 60.355469 C 155.3125 60.257812 155.234375 60.160156 155.175781 60.058594 C 154.980469 59.734375 154.5625 59.628906 154.242188 59.824219 C 153.921875 60.015625 153.816406 60.4375 154.011719 60.757812 C 154.128906 60.957031 154.277344 61.144531 154.449219 61.320312 C 155.039062 61.914062 155.824219 62.238281 156.652344 62.238281 C 158.210938 62.238281 159.539062 61.070312 159.742188 59.523438 Z M 159.742188 59.523438 " fill-opacity="1" fill-rule="nonzero"/></g><g clip-path="url(#id3)"><path fill="rgb(0%, 0%, 0%)" d="M 139.429688 39.988281 L 143.652344 39.988281 C 144.027344 39.988281 144.332031 39.683594 144.332031 39.308594 C 144.332031 38.929688 144.027344 38.625 143.652344 38.625 L 139.429688 38.625 C 139.054688 38.625 138.753906 38.929688 138.753906 39.308594 C 138.753906 39.683594 139.054688 39.988281 139.429688 39.988281 Z M 139.429688 39.988281 " fill-opacity="1" fill-rule="nonzero"/></g><g clip-path="url(#id4)"><path fill="rgb(0%, 0%, 0%)" d="M 168.980469 39.308594 C 168.980469 39.683594 169.285156 39.988281 169.660156 39.988281 L 173.878906 39.988281 C 174.253906 39.988281 174.558594 39.683594 174.558594 39.308594 C 174.558594 38.929688 174.253906 38.625 173.878906 38.625 L 169.660156 38.625 C 169.285156 38.625 168.980469 38.929688 168.980469 39.308594 Z M 168.980469 39.308594 " fill-opacity="1" fill-rule="nonzero"/></g><g clip-path="url(#id5)"><path fill="rgb(0%, 0%, 0%)" d="M 156.65625 26.914062 C 157.03125 26.914062 157.335938 26.609375 157.335938 26.230469 L 157.335938 21.988281 C 157.335938 21.609375 157.03125 21.304688 156.65625 21.304688 C 156.28125 21.304688 155.976562 21.609375 155.976562 21.988281 L 155.976562 26.230469 C 155.976562 26.609375 156.28125 26.914062 156.65625 26.914062 Z M 156.65625 26.914062 " fill-opacity="1" fill-rule="nonzero"/></g><path fill="rgb(0%, 0%, 0%)" d="M 165.851562 30.742188 C 166.023438 30.742188 166.199219 30.675781 166.332031 30.542969 L 169.316406 27.542969 C 169.578125 27.277344 169.578125 26.84375 169.316406 26.578125 C 169.050781 26.3125 168.621094 26.3125 168.355469 26.578125 L 165.371094 29.578125 C 165.105469 29.84375 165.105469 30.277344 165.371094 30.542969 C 165.503906 30.675781 165.675781 30.742188 165.851562 30.742188 Z M 165.851562 30.742188 " fill-opacity="1" fill-rule="nonzero"/><path fill="rgb(0%, 0%, 0%)" d="M 144.476562 52.234375 C 144.648438 52.234375 144.824219 52.167969 144.957031 52.035156 L 147.941406 49.035156 C 148.207031 48.769531 148.207031 48.335938 147.941406 48.070312 C 147.675781 47.804688 147.246094 47.804688 146.980469 48.070312 L 143.996094 51.070312 C 143.730469 51.335938 143.730469 51.769531 143.996094 52.035156 C 144.128906 52.167969 144.300781 52.234375 144.476562 52.234375 Z M 144.476562 52.234375 " fill-opacity="1" fill-rule="nonzero"/><path fill="rgb(0%, 0%, 0%)" d="M 146.980469 30.542969 C 147.113281 30.675781 147.285156 30.742188 147.460938 30.742188 C 147.632812 30.742188 147.808594 30.675781 147.941406 30.542969 C 148.207031 30.277344 148.207031 29.84375 147.941406 29.578125 L 144.957031 26.578125 C 144.691406 26.3125 144.261719 26.3125 143.996094 26.578125 C 143.730469 26.84375 143.730469 27.277344 143.996094 27.542969 Z M 146.980469 30.542969 " fill-opacity="1" fill-rule="nonzero"/><path fill="rgb(0%, 0%, 0%)" d="M 169.316406 51.070312 L 166.332031 48.070312 C 166.066406 47.804688 165.636719 47.804688 165.371094 48.070312 C 165.105469 48.335938 165.105469 48.769531 165.371094 49.035156 L 168.355469 52.035156 C 168.488281 52.167969 168.660156 52.234375 168.835938 52.234375 C 169.007812 52.234375 169.183594 52.167969 169.316406 52.035156 C 169.582031 51.769531 169.582031 51.335938 169.316406 51.070312 Z M 169.316406 51.070312 " fill-opacity="1" fill-rule="nonzero"/><path fill="rgb(0%, 0%, 0%)" d="M 154.730469 48.371094 L 154.730469 51.3125 C 154.730469 51.691406 155.03125 51.996094 155.40625 51.996094 C 155.78125 51.996094 156.085938 51.691406 156.085938 51.3125 L 156.085938 48.972656 L 157.226562 48.972656 L 157.226562 50.769531 C 157.226562 51.144531 157.53125 51.449219 157.902344 51.449219 C 158.277344 51.449219 158.582031 51.144531 158.582031 50.769531 L 158.582031 48.375 L 159.824219 42.496094 C 159.90625 42.105469 159.746094 41.710938 159.417969 41.484375 C 159.09375 41.261719 158.667969 41.257812 158.339844 41.476562 L 157.160156 42.257812 C 156.851562 42.460938 156.457031 42.460938 156.152344 42.257812 L 154.972656 41.476562 C 154.644531 41.257812 154.21875 41.261719 153.890625 41.484375 C 153.566406 41.710938 153.40625 42.105469 153.488281 42.496094 Z M 155.40625 43.394531 C 156.164062 43.898438 157.148438 43.898438 157.90625 43.394531 L 158.300781 43.136719 L 157.355469 47.609375 L 155.957031 47.609375 L 155.011719 43.136719 Z M 155.40625 43.394531 " fill-opacity="1" fill-rule="nonzero"/><path fill="rgb(0%, 0%, 0%)" d="M 156.660156 33.625 C 157.371094 33.625 158.066406 33.75 158.730469 33.996094 C 158.808594 34.023438 158.886719 34.039062 158.964844 34.039062 C 159.242188 34.039062 159.5 33.867188 159.601562 33.589844 C 159.730469 33.238281 159.550781 32.847656 159.199219 32.714844 C 158.386719 32.414062 157.53125 32.261719 156.660156 32.261719 C 156.285156 32.261719 155.980469 32.566406 155.980469 32.941406 C 155.980469 33.320312 156.285156 33.625 156.660156 33.625 Z M 156.660156 33.625 " fill-opacity="1" fill-rule="nonzero"/><path fill="rgb(0%, 0%, 0%)" d="M 162.539062 38.441406 C 162.605469 38.765625 162.886719 38.988281 163.203125 38.988281 C 163.246094 38.988281 163.292969 38.980469 163.339844 38.972656 C 163.707031 38.894531 163.941406 38.535156 163.867188 38.167969 C 163.546875 36.605469 162.710938 35.164062 161.511719 34.101562 C 161.230469 33.855469 160.804688 33.882812 160.554688 34.164062 C 160.308594 34.449219 160.335938 34.878906 160.617188 35.128906 C 161.59375 35.992188 162.277344 37.167969 162.539062 38.441406 Z M 162.539062 38.441406 " fill-opacity="1" fill-rule="nonzero"/></svg>